<?xml version="1.0" encoding="utf-8"?>
<!-- Generator: Adobe Illustrator 24.0.1, SVG Export Plug-In . SVG Version: 6.00 Build 0)  -->
<svg version="1.1" id="图层_1" xmlns="http://www.w3.org/2000/svg" xmlns:xlink="http://www.w3.org/1999/xlink" x="0px" y="0px"
	 viewBox="0 0 177.64 169.69" style="enable-background:new 0 0 177.64 169.69;" xml:space="preserve">
<style type="text/css">
	.st0{opacity:0.3;}
	.st1{fill:#D44B33;}
	.st2{fill:#F1AB3E;}
	.st3{fill:#076BAF;}
	.st4{fill:#5FC1C7;}
</style>
<g>
	<g id="_x32_2_1_" class="st0">
		<path class="st1" d="M33.12,127.44c-11.67,0-21.12,9.46-21.12,21.13c0,11.67,9.45,21.13,21.12,21.13
			c11.68,0,21.13-9.46,21.13-21.13C54.25,136.9,44.8,127.44,33.12,127.44z M33.12,162.97c-7.95,0-14.4-6.45-14.4-14.4
			c0-7.96,6.45-14.41,14.4-14.41c7.96,0,14.41,6.45,14.41,14.41C47.53,156.52,41.08,162.97,33.12,162.97z"/>
		<path class="st1" d="M158.67,145.98c0.13,0.78,0.21,1.57,0.21,2.38c0,7.96-6.45,14.4-14.41,14.4c-7.95,0-14.4-6.45-14.4-14.4
			c0-0.81,0.08-1.6,0.21-2.38h-6.79c-0.08,0.78-0.14,1.57-0.14,2.38c0,11.67,9.46,21.13,21.13,21.13c11.67,0,21.13-9.46,21.13-21.13
			c0-0.81-0.06-1.6-0.14-2.38H158.67z"/>
		<path class="st1" d="M163.24,47.52h-19.39c-7.47,0-13.6,5.75-14.22,13.07h47.83C176.84,53.27,170.71,47.52,163.24,47.52z"/>
		<path class="st1" d="M129.57,70.06v6.63c0,7.89,6.4,14.28,14.29,14.28h19.39c7.88,0,14.28-6.39,14.28-14.28v-6.63H129.57z"/>
		<path class="st1" d="M60.76,61.88h11.54v-1.43h1.83c2.16,0,3.91-1.69,4.05-3.8h2.61c1.34,0,2.44-1.09,2.44-2.44v-1.38h6.47
			c0.43,0.6,1.09,1.01,1.89,1.01h12.15c1.3,0,2.35-1.05,2.35-2.34v-3.39c0-1.29-1.05-2.34-2.35-2.34H91.59
			c-0.8,0-1.46,0.43-1.89,1.02h-6.47v-1.38c0-1.34-1.1-2.44-2.44-2.44h-2.61c-0.14-2.12-1.89-3.81-4.05-3.81h-1.6l9.55-19.78h3.86
			v4.75c0,0.77,0.62,1.4,1.39,1.4v0.14c0,0.98,0.79,1.76,1.75,1.76c0.98,0,1.76-0.78,1.76-1.76V10.75c0-0.96-0.78-1.75-1.76-1.75
			c-0.96,0-1.75,0.79-1.75,1.75v0.15c-0.77,0-1.39,0.62-1.39,1.39v4.75h-4.46c-0.38,0-0.73,0.18-0.95,0.48l-9.85,20.21h-9.92
			c-2.59,0-4.69,2.1-4.69,4.68V57.2C56.07,59.79,58.18,61.88,60.76,61.88z"/>
		<path class="st1" d="M153.39,94.55h-7.77c-9.85,0-18.37-8.01-18.37-17.86v-1.23h-24.19c-3.88,0-7.03,3.14-7.03,7.02
			c0,3.87,3.15,7.02,7.03,7.02h2.1c15.06,0,18.44,36.84-5.9,36.84H71.7c-32.32,0-2.68-57.26-0.18-61.99h-7.63
			c-1.53,1.89-9.44,12-15.53,25.81H43.1c-3.67,0-6.64,2.98-6.64,6.65v9.13c0,2.73,1.65,5.07,4,6.09c-2.37-0.48-4.81-0.77-7.33-0.77
			c-7.07,0-13.68,1.98-19.32,5.4c-6.64,4.36-0.69,15.11,4.53,11.79c4.14-3.06,9.25-4.88,14.79-4.88c13.81,0,25.01,11.19,25.01,25
			c0,1.24-0.08,2.02-0.29,3.62c-0.66,4.25,11.64,5.86,12.39,0c0.07-0.72,0.2-2.28,0.2-3.49c0.43,0.01,0.84,0.04,1.27,0.04h46.73
			c3.83,0,0.68-5.4,3.19-5.4h47.84c2.29,0,3.67-1.02,3.67-4.25l0.11-6.13l-0.06,0.01C174.21,112.94,161.32,100.01,153.39,94.55z"/>
	</g>
	<g id="_x32_2">
		<g>
			<path class="st2" d="M23.12,123.44C11.45,123.44,2,132.9,2,144.57c0,11.67,9.45,21.13,21.12,21.13
				c11.68,0,21.13-9.46,21.13-21.13C44.25,132.9,34.8,123.44,23.12,123.44z M23.12,158.97c-7.95,0-14.4-6.45-14.4-14.4
				c0-7.96,6.45-14.41,14.4-14.41c7.96,0,14.41,6.45,14.41,14.41C37.53,152.52,31.08,158.97,23.12,158.97z"/>
			<path class="st3" d="M23.12,167.69C10.37,167.69,0,157.32,0,144.57c0-12.75,10.37-23.13,23.12-23.13
				c12.75,0,23.13,10.38,23.13,23.13C46.25,157.32,35.88,167.69,23.12,167.69z M23.12,125.44C12.58,125.44,4,134.02,4,144.57
				c0,10.55,8.58,19.13,19.12,19.13c10.55,0,19.13-8.58,19.13-19.13C42.25,134.02,33.67,125.44,23.12,125.44z M23.12,160.97
				c-9.04,0-16.4-7.36-16.4-16.4c0-9.05,7.36-16.41,16.4-16.41c9.05,0,16.41,7.36,16.41,16.41
				C39.53,153.61,32.17,160.97,23.12,160.97z M23.12,132.16c-6.84,0-12.4,5.57-12.4,12.41c0,6.84,5.56,12.4,12.4,12.4
				c6.84,0,12.41-5.56,12.41-12.4C35.53,137.73,29.96,132.16,23.12,132.16z"/>
		</g>
		<g>
			<path class="st2" d="M152.67,141.98c0.13,0.78,0.21,1.57,0.21,2.38c0,7.96-6.45,14.4-14.41,14.4c-7.95,0-14.4-6.45-14.4-14.4
				c0-0.81,0.08-1.6,0.21-2.38h-6.79c-0.08,0.78-0.14,1.57-0.14,2.38c0,11.67,9.46,21.13,21.13,21.13
				c11.67,0,21.13-9.46,21.13-21.13c0-0.81-0.06-1.6-0.14-2.38H152.67z"/>
			<path class="st3" d="M138.48,167.48c-12.75,0-23.13-10.37-23.13-23.13c0-0.93,0.08-1.83,0.16-2.58l0.18-1.8h10.95l-0.38,2.32
				c-0.12,0.74-0.18,1.41-0.18,2.05c0,6.84,5.56,12.4,12.4,12.4c6.84,0,12.41-5.56,12.41-12.4c0-0.65-0.06-1.32-0.18-2.04l-0.4-2.34
				h10.98l0.18,1.8c0.1,0.99,0.15,1.81,0.15,2.58C161.61,157.11,151.23,167.48,138.48,167.48z M119.36,143.98
				c0,0.13-0.01,0.25-0.01,0.38c0,10.55,8.58,19.13,19.13,19.13c10.55,0,19.13-8.58,19.13-19.13c0-0.12,0-0.25,0-0.38h-2.72
				c0,0.13,0,0.25,0,0.38c0,9.04-7.36,16.4-16.41,16.4c-9.04,0-16.4-7.36-16.4-16.4c0-0.13,0-0.25,0-0.38H119.36z"/>
		</g>
		<g>
			<path class="st2" d="M161.24,38.52h-19.39c-7.47,0-13.6,5.75-14.22,13.07h47.83C174.84,44.27,168.71,38.52,161.24,38.52z"/>
			<path class="st3" d="M177.64,53.59h-52.19l0.19-2.17c0.71-8.35,7.84-14.9,16.22-14.9h19.39c8.38,0,15.5,6.54,16.21,14.9
				L177.64,53.59z M130.01,49.59h43.07c-1.43-5.23-6.27-9.07-11.84-9.07h-19.39C136.28,40.52,131.45,44.36,130.01,49.59z"/>
		</g>
		<g>
			<path class="st2" d="M127.57,61.06v6.63c0,7.89,6.4,14.28,14.29,14.28h19.39c7.88,0,14.28-6.39,14.28-14.28v-6.63H127.57z"/>
			<path class="st3" d="M161.24,83.97h-19.39c-8.98,0-16.29-7.3-16.29-16.28v-8.63h51.95v8.63
				C177.52,76.67,170.22,83.97,161.24,83.97z M129.57,63.06v4.63c0,6.77,5.51,12.28,12.29,12.28h19.39
				c6.77,0,12.28-5.51,12.28-12.28v-4.63H129.57z"/>
		</g>
		<g>
			<path class="st4" d="M53.76,54.88h11.54v-1.43h1.83c2.16,0,3.91-1.69,4.05-3.8h2.61c1.34,0,2.44-1.09,2.44-2.44v-1.38h6.47
				c0.43,0.6,1.09,1.01,1.89,1.01h12.15c1.3,0,2.35-1.05,2.35-2.34v-3.39c0-1.29-1.05-2.34-2.35-2.34H84.59
				c-0.8,0-1.46,0.43-1.89,1.02h-6.47v-1.38c0-1.34-1.1-2.44-2.44-2.44h-2.61c-0.14-2.12-1.89-3.81-4.05-3.81h-1.6l9.55-19.78h3.86
				v4.75c0,0.77,0.62,1.4,1.39,1.4v0.14c0,0.98,0.79,1.76,1.75,1.76c0.98,0,1.76-0.78,1.76-1.76V3.75c0-0.96-0.78-1.75-1.76-1.75
				c-0.96,0-1.75,0.79-1.75,1.75v0.15c-0.77,0-1.39,0.62-1.39,1.39v4.75h-4.46c-0.38,0-0.73,0.18-0.95,0.48l-9.85,20.21h-9.92
				c-2.59,0-4.69,2.1-4.69,4.68V50.2C49.07,52.79,51.18,54.88,53.76,54.88z"/>
			<path class="st3" d="M67.31,56.88H53.76c-3.69,0-6.69-3-6.69-6.68V35.43c0-3.68,3-6.68,6.69-6.68h8.67L71.9,9.38
				c0.59-0.83,1.56-1.33,2.58-1.33h2.46V5.3c0-1.23,0.66-2.32,1.65-2.91C79.14,0.99,80.5,0,82.09,0c2.07,0,3.76,1.68,3.76,3.75
				v14.94c0,2.08-1.69,3.76-3.76,3.76c-1.59,0-2.95-0.99-3.49-2.39c-0.99-0.59-1.65-1.68-1.65-2.91V14.4h-0.61l-7.71,15.97
				c1.86,0.48,3.4,1.84,4.12,3.62h1.04c2.24,0,4.09,1.66,4.39,3.82h3.66c0.77-0.66,1.73-1.02,2.75-1.02h12.15
				c2.4,0,4.35,1.95,4.35,4.34v3.39c0,2.39-1.95,4.34-4.35,4.34H84.59c-1.02,0-1.98-0.36-2.75-1.01h-3.66
				c-0.3,2.15-2.16,3.82-4.39,3.82h-1.04c-0.88,2.19-2.99,3.73-5.44,3.8V56.88z M53.76,32.75c-1.48,0-2.69,1.2-2.69,2.68V50.2
				c0,1.48,1.21,2.68,2.69,2.68h9.54v-1.43h3.83c1.08,0,1.98-0.85,2.05-1.93l0.12-1.87h4.48c0.24,0,0.44-0.2,0.44-0.44v-3.38h9.5
				l0.6,0.83c0.08,0.12,0.17,0.18,0.26,0.18h12.15c0.19,0,0.35-0.15,0.35-0.34v-3.39c0-0.19-0.16-0.34-0.35-0.34H84.59
				c-0.12,0-0.22,0.13-0.26,0.19l-0.6,0.83h-9.5v-3.38c0-0.24-0.2-0.44-0.44-0.44h-4.48l-0.13-1.86c-0.07-1.09-0.98-1.94-2.05-1.94
				h-4.79l0.69-1.42H53.76z M80.94,16.55h0.9V5.91h-0.9V16.55z"/>
		</g>
		<g>
			<path class="st4" d="M146.39,87.55h-7.77c-9.85,0-18.37-8.01-18.37-17.86v-1.23H96.06c-3.88,0-7.03,3.14-7.03,7.02
				c0,3.87,3.15,7.02,7.03,7.02h2.1c15.06,0,18.44,36.84-5.9,36.84H64.7c-32.32,0-2.68-57.26-0.18-61.99h-7.63
				c-1.53,1.89-9.44,12-15.53,25.81H36.1c-3.67,0-6.64,2.98-6.64,6.65v9.13c0,2.73,1.65,5.07,4,6.09c-2.37-0.48-4.81-0.77-7.33-0.77
				c-7.07,0-13.68,1.98-19.32,5.4c-6.64,4.36-0.69,15.11,4.53,11.79c4.14-3.06,9.25-4.88,14.79-4.88c13.81,0,25.01,11.19,25.01,25
				c0,1.24-0.08,2.02-0.29,3.62c-0.66,4.25,11.64,5.86,12.39,0c0.07-0.72,0.2-2.28,0.2-3.49c0.43,0.01,0.84,0.04,1.27,0.04h46.73
				c3.83,0,0.68-5.4,3.19-5.4h47.84c2.29,0,3.67-1.02,3.67-4.25l0.11-6.13l-0.06,0.01C167.21,105.94,154.32,93.01,146.39,87.55z"/>
			<path class="st3" d="M57.21,151.01c-2.44,0-4.93-0.69-6.54-1.96c-1.41-1.11-2.05-2.59-1.81-4.16c0.2-1.48,0.27-2.18,0.27-3.31
				c0-12.68-10.32-23-23.01-23c-4.92,0-9.62,1.55-13.6,4.49l-0.11,0.08c-3.01,1.92-6.68,0.83-8.92-2.63
				c-2.43-3.76-2.48-9.42,2.22-12.51c6.77-4.11,14.52-6.11,22.44-5.67c-0.45-1.05-0.69-2.2-0.69-3.38v-9.13
				c0-4.77,3.88-8.65,8.64-8.65h3.96c6.12-13.45,13.76-23.2,15.27-25.06l0.6-0.74h11.91l-1.55,2.94
				c-7.83,14.8-19.28,42.85-12.53,54.05c2.03,3.37,5.61,5,10.95,5h27.57c5.18,0,9.22-1.79,12.01-5.33
				c2.41-3.06,3.73-7.31,3.73-11.98c0-7.64-3.68-15.53-9.84-15.53h-2.1c-4.98,0-9.03-4.05-9.03-9.02c0-4.98,4.05-9.02,9.03-9.02
				h26.19v3.23c0,8.6,7.49,15.86,16.37,15.86h8.39l0.51,0.35c5.03,3.46,21.1,16.3,20.71,38.62l0.01,1.47l-0.11,6.13
				c0,5.4-3.55,6.21-5.67,6.21h-46.95c0,0.09,0,0.18,0,0.26c0.01,1.2,0.03,2.85-1.16,4.04c-0.72,0.73-1.71,1.1-2.93,1.1H65.35
				c-0.04,0.59-0.08,1.16-0.13,1.63c-0.29,2.27-1.68,3.98-3.94,4.9C60.06,150.77,58.64,151.01,57.21,151.01z M26.12,114.57
				c14.89,0,27.01,12.11,27.01,27c0,1.38-0.09,2.28-0.31,3.89c-0.02,0.1,0.1,0.26,0.33,0.44c1.27,1,4.51,1.52,6.62,0.66
				c1.34-0.55,1.44-1.33,1.47-1.63c0.11-1.29,0.18-2.44,0.19-3.25l0.01-2.05l2.46,0.08c0.26,0.01,0.52,0.02,0.8,0.02h46.73
				c0.02,0,0.04,0,0.05,0c0.04-0.3,0.04-0.78,0.03-1.1c-0.01-1.1-0.02-2.46,0.95-3.44c0.39-0.39,1.07-0.85,2.15-0.85h47.84
				c1.08,0,1.67,0,1.67-2.25l0.06-3.56l-0.09,0.02l0.08-2.69c1.05-20.5-13.22-32.61-18.42-36.32h-7.14
				c-10.77,0-19.92-8.66-20.35-19.09H96.06c-2.77,0-5.03,2.25-5.03,5.02c0,2.77,2.26,5.02,5.03,5.02h2.1
				c8.99,0,13.84,10.06,13.84,19.53c0,5.56-1.63,10.69-4.59,14.45c-3.53,4.48-8.77,6.86-15.15,6.86H64.7
				c-6.76,0-11.6-2.33-14.37-6.94c-0.78-1.29-1.36-2.73-1.78-4.28L33.06,107c-2.43-0.49-4.7-0.73-6.94-0.73
				c-6.45,0-12.78,1.77-18.28,5.11c-2.81,1.85-2.15,5.18-1,6.96c0.27,0.42,1.71,2.46,3.37,1.46
				C14.87,116.38,20.37,114.57,26.12,114.57z M36.1,85.16c-2.56,0-4.64,2.08-4.64,4.65v9.13c0,1.85,1.1,3.52,2.8,4.26l14.1,6.15
				c-3.45-15.11,7.96-40.17,12.89-50h-3.39c-2.37,3.02-9.24,12.31-14.67,24.61l-0.53,1.19H36.1z"/>
		</g>
	</g>
	<path class="st3" d="M127.86,125c-1.1,0-2-0.9-2-2V99c0-1.1,0.9-2,2-2s2,0.9,2,2v24C129.86,124.1,128.97,125,127.86,125z"/>
	<path class="st3" d="M153.86,107h-12c-1.1,0-2-0.9-2-2s0.9-2,2-2h12c1.1,0,2,0.9,2,2S154.97,107,153.86,107z"/>
	<path class="st3" d="M157.86,114h-12c-1.1,0-2-0.9-2-2s0.9-2,2-2h12c1.1,0,2,0.9,2,2S158.97,114,157.86,114z"/>
	<path class="st3" d="M159.86,121h-12c-1.1,0-2-0.9-2-2s0.9-2,2-2h12c1.1,0,2,0.9,2,2S160.97,121,159.86,121z"/>
</g>
</svg>
