<svg xmlns="http://www.w3.org/2000/svg" xmlns:xlink="http://www.w3.org/1999/xlink" viewBox="0 0 456.01 262.12"><defs><style>.cls-1,.cls-2,.cls-22,.cls-23,.cls-3,.cls-4,.cls-5,.cls-6{fill:none;}.cls-1,.cls-2,.cls-20,.cls-22,.cls-23,.cls-3,.cls-4,.cls-5,.cls-6{stroke-miterlimit:10;}.cls-1,.cls-2,.cls-3,.cls-4,.cls-5,.cls-6{stroke-width:2px;}.cls-1{stroke:url(#未命名的渐变_26);}.cls-2{stroke:url(#未命名的渐变_26-2);}.cls-3{stroke:url(#未命名的渐变_26-3);}.cls-4{stroke:url(#未命名的渐变_26-4);}.cls-5{stroke:url(#未命名的渐变_26-5);}.cls-6{stroke:url(#未命名的渐变_26-6);}.cls-10,.cls-11,.cls-12,.cls-7,.cls-9{opacity:0.4;}.cls-7{fill:url(#未命名的渐变_26-7);}.cls-8{opacity:0.7;}.cls-9{fill:url(#未命名的渐变_26-8);}.cls-10{fill:url(#未命名的渐变_26-9);}.cls-11{fill:url(#未命名的渐变_26-10);}.cls-12{fill:url(#未命名的渐变_26-11);}.cls-13{fill:#f0dabc;}.cls-14{fill:#ffeed2;}.cls-15{fill:#257fba;}.cls-16{fill:#398eed;}.cls-17{fill:#ffb056;}.cls-18{fill:#ffbf76;}.cls-19{fill:#e49056;}.cls-20{stroke:#000;}.cls-20,.cls-23{stroke-width:0.2px;}.cls-21{fill:#f5f5f5;}.cls-22{stroke:#4986d9;stroke-width:0.1px;}.cls-23{stroke:#ffb056;}.cls-24{fill:#ccc;}.cls-25{fill:#e8e8e8;}.cls-26{fill:#e55c5c;opacity:0.2;}.cls-27{fill:#5ca7f0;}.cls-28{fill:#6baef0;}.cls-29{fill:#2d8ce9;}.cls-30{fill:#75b3f0;}.cls-31{fill:#3a93e9;}.cls-32{fill:#80b8f5;}.cls-33{fill:#2d96e9;}.cls-34{fill:#8bc2fa;}.cls-35{fill:#4da2e9;}.cls-36{fill:#9cc9fa;}.cls-37{fill:#aad5ff;}</style><linearGradient id="未命名的渐变_26" x1="1" y1="91.35" x2="1" y2="181.12" gradientUnits="userSpaceOnUse"><stop offset="0" stop-color="#81cfff"/><stop offset="1" stop-color="#5ecfff" stop-opacity="0"/></linearGradient><linearGradient id="未命名的渐变_26-2" x1="455.01" y1="72.11" x2="455.01" y2="161.88" xlink:href="#未命名的渐变_26"/><linearGradient id="未命名的渐变_26-3" x1="40.9" y1="143.88" x2="40.9" y2="199.51" xlink:href="#未命名的渐变_26"/><linearGradient id="未命名的渐变_26-4" x1="64.97" y1="95.36" x2="64.97" y2="123.17" xlink:href="#未命名的渐变_26"/><linearGradient id="未命名的渐变_26-5" x1="397.23" y1="104.2" x2="397.23" y2="132.02" xlink:href="#未命名的渐变_26"/><linearGradient id="未命名的渐变_26-6" x1="424.75" y1="133.49" x2="424.75" y2="189.13" xlink:href="#未命名的渐变_26"/><linearGradient id="未命名的渐变_26-7" x1="232.75" y1="224.43" x2="232.75" y2="262.12" xlink:href="#未命名的渐变_26"/><linearGradient id="未命名的渐变_26-8" x1="349.36" y1="26.68" x2="349.36" y2="204.03" xlink:href="#未命名的渐变_26"/><linearGradient id="未命名的渐变_26-9" x1="201.45" y1="55.61" x2="201.45" y2="204.03" xlink:href="#未命名的渐变_26"/><linearGradient id="未命名的渐变_26-10" x1="122.98" y1="26.68" x2="122.98" y2="204.03" xlink:href="#未命名的渐变_26"/><linearGradient id="未命名的渐变_26-11" x1="273.51" y1="0" x2="273.51" y2="209.54" xlink:href="#未命名的渐变_26"/></defs><title>加载中</title><g id="图层_2" data-name="图层 2"><g id="图层_1-2" data-name="图层 1"><line class="cls-1" x1="1" y1="91.35" x2="1" y2="181.12"/><line class="cls-2" x1="455.01" y1="72.11" x2="455.01" y2="161.88"/><line class="cls-3" x1="40.9" y1="143.88" x2="40.9" y2="199.51"/><line class="cls-4" x1="64.97" y1="95.36" x2="64.97" y2="123.17"/><line class="cls-5" x1="397.23" y1="104.2" x2="397.23" y2="132.02"/><line class="cls-6" x1="424.75" y1="133.49" x2="424.75" y2="189.13"/><path class="cls-7" d="M412.28,262.12c-23-23-61-37.69-179.53-37.69S76.24,239.1,53.21,262.12Z"/><g class="cls-8"><path class="cls-9" d="M380.66,26.68H318.07a2.71,2.71,0,0,0-2.82,2.59V201.44a2.71,2.71,0,0,0,2.82,2.59h62.59a2.72,2.72,0,0,0,2.82-2.59V29.27A2.72,2.72,0,0,0,380.66,26.68ZM328.3,147a.9.9,0,0,1-.95.87h-3.6a.9.9,0,0,1-.95-.87V127.27a.91.91,0,0,1,.95-.87h3.6a.91.91,0,0,1,.95.87Zm0-30.23a.91.91,0,0,1-.95.87h-3.6a.91.91,0,0,1-.95-.87V97a.91.91,0,0,1,.95-.87h3.6a.91.91,0,0,1,.95.87Zm0-30.24a.91.91,0,0,1-.95.87h-3.6a.91.91,0,0,1-.95-.87V66.8a.91.91,0,0,1,.95-.87h3.6a.91.91,0,0,1,.95.87Zm0-30.24a.91.91,0,0,1-.95.87h-3.6a.91.91,0,0,1-.95-.87V36.56a.91.91,0,0,1,.95-.87h3.6a.91.91,0,0,1,.95.87ZM340,147a.9.9,0,0,1-.94.87h-3.61a.91.91,0,0,1-.95-.87V127.27a.92.92,0,0,1,.95-.87h3.61a.91.91,0,0,1,.94.87Zm0-30.23a.91.91,0,0,1-.94.87h-3.61a.92.92,0,0,1-.95-.87V97a.92.92,0,0,1,.95-.87h3.61A.91.91,0,0,1,340,97Zm0-30.24a.91.91,0,0,1-.94.87h-3.61a.92.92,0,0,1-.95-.87V66.8a.92.92,0,0,1,.95-.87h3.61a.91.91,0,0,1,.94.87Zm0-30.24a.91.91,0,0,1-.94.87h-3.61a.92.92,0,0,1-.95-.87V36.56a.92.92,0,0,1,.95-.87h3.61a.91.91,0,0,1,.94.87ZM351.7,147a.9.9,0,0,1-.94.87h-3.61a.9.9,0,0,1-.94-.87V127.27a.91.91,0,0,1,.94-.87h3.61a.91.91,0,0,1,.94.87Zm0-30.23a.91.91,0,0,1-.94.87h-3.61a.91.91,0,0,1-.94-.87V97a.91.91,0,0,1,.94-.87h3.61a.91.91,0,0,1,.94.87Zm0-30.24a.91.91,0,0,1-.94.87h-3.61a.91.91,0,0,1-.94-.87V66.8a.91.91,0,0,1,.94-.87h3.61a.91.91,0,0,1,.94.87Zm0-30.24a.91.91,0,0,1-.94.87h-3.61a.91.91,0,0,1-.94-.87V36.56a.91.91,0,0,1,.94-.87h3.61a.91.91,0,0,1,.94.87ZM363.4,147a.9.9,0,0,1-.94.87h-3.61a.9.9,0,0,1-.94-.87V127.27a.91.91,0,0,1,.94-.87h3.61a.91.91,0,0,1,.94.87Zm0-30.23a.91.91,0,0,1-.94.87h-3.61a.91.91,0,0,1-.94-.87V97a.91.91,0,0,1,.94-.87h3.61a.91.91,0,0,1,.94.87Zm0-30.24a.91.91,0,0,1-.94.87h-3.61a.91.91,0,0,1-.94-.87V66.8a.91.91,0,0,1,.94-.87h3.61a.91.91,0,0,1,.94.87Zm0-30.24a.91.91,0,0,1-.94.87h-3.61a.91.91,0,0,1-.94-.87V36.56a.91.91,0,0,1,.94-.87h3.61a.91.91,0,0,1,.94.87ZM375.11,147a.91.91,0,0,1-.95.87h-3.61a.9.9,0,0,1-.94-.87V127.27a.91.91,0,0,1,.94-.87h3.61a.92.92,0,0,1,.95.87Zm0-30.23a.92.92,0,0,1-.95.87h-3.61a.91.91,0,0,1-.94-.87V97a.91.91,0,0,1,.94-.87h3.61a.92.92,0,0,1,.95.87Zm0-30.24a.92.92,0,0,1-.95.87h-3.61a.91.91,0,0,1-.94-.87V66.8a.91.91,0,0,1,.94-.87h3.61a.92.92,0,0,1,.95.87Zm0-30.24a.92.92,0,0,1-.95.87h-3.61a.91.91,0,0,1-.94-.87V36.56a.91.91,0,0,1,.94-.87h3.61a.92.92,0,0,1,.95.87Z"/><path class="cls-10" d="M231.1,55.61H171.8A2.71,2.71,0,0,0,169,58.2V201.44A2.71,2.71,0,0,0,171.8,204h59.3a2.71,2.71,0,0,0,2.82-2.59V58.2A2.71,2.71,0,0,0,231.1,55.61ZM182.47,159.37a1.16,1.16,0,0,1-1.2,1.11h-5.4a1.16,1.16,0,0,1-1.2-1.11v-5.22a1.15,1.15,0,0,1,1.2-1.1h5.4a1.15,1.15,0,0,1,1.2,1.1Zm0-12.88a1.15,1.15,0,0,1-1.2,1.1h-5.4a1.15,1.15,0,0,1-1.2-1.1v-5.22a1.16,1.16,0,0,1,1.2-1.11h5.4a1.16,1.16,0,0,1,1.2,1.11Zm0-12.89a1.16,1.16,0,0,1-1.2,1.11h-5.4a1.16,1.16,0,0,1-1.2-1.11v-5.22a1.15,1.15,0,0,1,1.2-1.1h5.4a1.15,1.15,0,0,1,1.2,1.1Zm0-12.88a1.15,1.15,0,0,1-1.2,1.1h-5.4a1.15,1.15,0,0,1-1.2-1.1V115.5a1.16,1.16,0,0,1,1.2-1.11h5.4a1.16,1.16,0,0,1,1.2,1.11Zm0-12.89a1.16,1.16,0,0,1-1.2,1.11h-5.4a1.16,1.16,0,0,1-1.2-1.11v-5.21a1.15,1.15,0,0,1,1.2-1.11h5.4a1.15,1.15,0,0,1,1.2,1.11Zm0-12.88a1.15,1.15,0,0,1-1.2,1.1h-5.4a1.15,1.15,0,0,1-1.2-1.1V89.73a1.16,1.16,0,0,1,1.2-1.11h5.4a1.16,1.16,0,0,1,1.2,1.11Zm0-12.89a1.16,1.16,0,0,1-1.2,1.11h-5.4a1.16,1.16,0,0,1-1.2-1.11V76.85a1.15,1.15,0,0,1,1.2-1.11h5.4a1.15,1.15,0,0,1,1.2,1.11Zm0-12.88a1.15,1.15,0,0,1-1.2,1.1h-5.4a1.15,1.15,0,0,1-1.2-1.1V64a1.16,1.16,0,0,1,1.2-1.11h5.4a1.16,1.16,0,0,1,1.2,1.11Zm10.08,90.19a1.16,1.16,0,0,1-1.2,1.11H186a1.16,1.16,0,0,1-1.21-1.11v-5.22a1.16,1.16,0,0,1,1.21-1.1h5.4a1.15,1.15,0,0,1,1.2,1.1Zm0-12.88a1.15,1.15,0,0,1-1.2,1.1H186a1.16,1.16,0,0,1-1.21-1.1v-5.22a1.16,1.16,0,0,1,1.21-1.11h5.4a1.16,1.16,0,0,1,1.2,1.11Zm0-12.89a1.16,1.16,0,0,1-1.2,1.11H186a1.16,1.16,0,0,1-1.21-1.11v-5.22a1.16,1.16,0,0,1,1.21-1.1h5.4a1.15,1.15,0,0,1,1.2,1.1Zm0-12.88a1.15,1.15,0,0,1-1.2,1.1H186a1.16,1.16,0,0,1-1.21-1.1V115.5a1.16,1.16,0,0,1,1.21-1.11h5.4a1.16,1.16,0,0,1,1.2,1.11Zm0-12.89a1.16,1.16,0,0,1-1.2,1.11H186a1.16,1.16,0,0,1-1.21-1.11v-5.21a1.16,1.16,0,0,1,1.21-1.11h5.4a1.15,1.15,0,0,1,1.2,1.11Zm0-12.88a1.15,1.15,0,0,1-1.2,1.1H186a1.16,1.16,0,0,1-1.21-1.1V89.73A1.16,1.16,0,0,1,186,88.62h5.4a1.16,1.16,0,0,1,1.2,1.11Zm0-12.89a1.16,1.16,0,0,1-1.2,1.11H186a1.16,1.16,0,0,1-1.21-1.11V76.85A1.16,1.16,0,0,1,186,75.74h5.4a1.15,1.15,0,0,1,1.2,1.11Zm0-12.88a1.15,1.15,0,0,1-1.2,1.1H186a1.16,1.16,0,0,1-1.21-1.1V64A1.16,1.16,0,0,1,186,62.85h5.4a1.16,1.16,0,0,1,1.2,1.11Zm10.08,90.19a1.16,1.16,0,0,1-1.21,1.11H196a1.16,1.16,0,0,1-1.2-1.11v-5.22a1.15,1.15,0,0,1,1.2-1.1h5.4a1.16,1.16,0,0,1,1.21,1.1Zm0-12.88a1.16,1.16,0,0,1-1.21,1.1H196a1.15,1.15,0,0,1-1.2-1.1v-5.22a1.16,1.16,0,0,1,1.2-1.11h5.4a1.16,1.16,0,0,1,1.21,1.11Zm0-12.89a1.16,1.16,0,0,1-1.21,1.11H196a1.16,1.16,0,0,1-1.2-1.11v-5.22a1.15,1.15,0,0,1,1.2-1.1h5.4a1.16,1.16,0,0,1,1.21,1.1Zm0-12.88a1.16,1.16,0,0,1-1.21,1.1H196a1.15,1.15,0,0,1-1.2-1.1V115.5a1.16,1.16,0,0,1,1.2-1.11h5.4a1.16,1.16,0,0,1,1.21,1.11Zm0-12.89a1.16,1.16,0,0,1-1.21,1.11H196a1.16,1.16,0,0,1-1.2-1.11v-5.21a1.15,1.15,0,0,1,1.2-1.11h5.4a1.16,1.16,0,0,1,1.21,1.11Zm0-12.88a1.16,1.16,0,0,1-1.21,1.1H196a1.15,1.15,0,0,1-1.2-1.1V89.73a1.16,1.16,0,0,1,1.2-1.11h5.4a1.16,1.16,0,0,1,1.21,1.11Zm0-12.89a1.16,1.16,0,0,1-1.21,1.11H196a1.16,1.16,0,0,1-1.2-1.11V76.85a1.15,1.15,0,0,1,1.2-1.11h5.4a1.16,1.16,0,0,1,1.21,1.11Zm0-12.88a1.16,1.16,0,0,1-1.21,1.1H196a1.15,1.15,0,0,1-1.2-1.1V64a1.16,1.16,0,0,1,1.2-1.11h5.4A1.16,1.16,0,0,1,202.63,64Zm25.21,90.19a1.16,1.16,0,0,1-1.2,1.11H206.1a1.16,1.16,0,0,1-1.2-1.11v-5.22a1.15,1.15,0,0,1,1.2-1.1h20.54a1.15,1.15,0,0,1,1.2,1.1Zm0-12.88a1.15,1.15,0,0,1-1.2,1.1H206.1a1.15,1.15,0,0,1-1.2-1.1v-5.22a1.16,1.16,0,0,1,1.2-1.11h20.54a1.16,1.16,0,0,1,1.2,1.11Zm0-12.89a1.16,1.16,0,0,1-1.2,1.11H206.1a1.16,1.16,0,0,1-1.2-1.11v-5.22a1.15,1.15,0,0,1,1.2-1.1h20.54a1.15,1.15,0,0,1,1.2,1.1Zm0-12.88a1.15,1.15,0,0,1-1.2,1.1H206.1a1.15,1.15,0,0,1-1.2-1.1V115.5a1.16,1.16,0,0,1,1.2-1.11h20.54a1.16,1.16,0,0,1,1.2,1.11Zm0-12.89a1.16,1.16,0,0,1-1.2,1.11H206.1a1.16,1.16,0,0,1-1.2-1.11v-5.21a1.15,1.15,0,0,1,1.2-1.11h20.54a1.15,1.15,0,0,1,1.2,1.11Zm0-12.88a1.15,1.15,0,0,1-1.2,1.1H206.1a1.15,1.15,0,0,1-1.2-1.1V89.73a1.16,1.16,0,0,1,1.2-1.11h20.54a1.16,1.16,0,0,1,1.2,1.11Zm0-12.89a1.16,1.16,0,0,1-1.2,1.11H206.1a1.16,1.16,0,0,1-1.2-1.11V76.85a1.15,1.15,0,0,1,1.2-1.11h20.54a1.15,1.15,0,0,1,1.2,1.11Zm0-12.88a1.15,1.15,0,0,1-1.2,1.1H206.1a1.15,1.15,0,0,1-1.2-1.1V64a1.16,1.16,0,0,1,1.2-1.11h20.54a1.16,1.16,0,0,1,1.2,1.11Z"/><path class="cls-11" d="M161.13,26.68H84.83A2.71,2.71,0,0,0,82,29.27V201.44A2.71,2.71,0,0,0,84.83,204h76.3a2.71,2.71,0,0,0,2.82-2.59V29.27A2.71,2.71,0,0,0,161.13,26.68ZM154.34,161a1.16,1.16,0,0,1-1.2,1.11H92.83A1.16,1.16,0,0,1,91.62,161v-5.21a1.16,1.16,0,0,1,1.21-1.11h60.31a1.15,1.15,0,0,1,1.2,1.11Zm0-14.67a1.15,1.15,0,0,1-1.2,1.1H92.83a1.16,1.16,0,0,1-1.21-1.1v-5.22A1.16,1.16,0,0,1,92.83,140h60.31a1.16,1.16,0,0,1,1.2,1.11Zm0-14.68a1.16,1.16,0,0,1-1.2,1.11H92.83a1.16,1.16,0,0,1-1.21-1.11v-5.22a1.16,1.16,0,0,1,1.21-1.1h60.31a1.15,1.15,0,0,1,1.2,1.1Zm0-14.68a1.16,1.16,0,0,1-1.2,1.11H92.83a1.16,1.16,0,0,1-1.21-1.11v-5.21a1.16,1.16,0,0,1,1.21-1.11h60.31a1.15,1.15,0,0,1,1.2,1.11Zm0-14.67a1.15,1.15,0,0,1-1.2,1.1H92.83a1.16,1.16,0,0,1-1.21-1.1V97a1.16,1.16,0,0,1,1.21-1.11h60.31a1.16,1.16,0,0,1,1.2,1.11Zm0-14.68a1.16,1.16,0,0,1-1.2,1.11H92.83a1.16,1.16,0,0,1-1.21-1.11V82.35a1.16,1.16,0,0,1,1.21-1.1h60.31a1.15,1.15,0,0,1,1.2,1.1Zm0-14.68a1.16,1.16,0,0,1-1.2,1.11H92.83a1.16,1.16,0,0,1-1.21-1.11V67.68a1.16,1.16,0,0,1,1.21-1.11h60.31a1.15,1.15,0,0,1,1.2,1.11Zm0-14.67a1.15,1.15,0,0,1-1.2,1.1H92.83a1.16,1.16,0,0,1-1.21-1.1V53a1.16,1.16,0,0,1,1.21-1.11h60.31a1.16,1.16,0,0,1,1.2,1.11Zm0-14.68a1.16,1.16,0,0,1-1.2,1.11H92.83a1.16,1.16,0,0,1-1.21-1.11V38.32a1.16,1.16,0,0,1,1.21-1.1h60.31a1.15,1.15,0,0,1,1.2,1.1Z"/><path class="cls-12" d="M306.21,0H240.82a2.51,2.51,0,0,0-2.42,2.59V206.94a2.51,2.51,0,0,0,2.42,2.6h65.39a2.51,2.51,0,0,0,2.41-2.6V2.59A2.51,2.51,0,0,0,306.21,0Zm-5.82,134.28a1.06,1.06,0,0,1-1,1.1H247.67a1.06,1.06,0,0,1-1-1.1v-5.22a1.07,1.07,0,0,1,1-1.11h51.69a1.07,1.07,0,0,1,1,1.11Zm0-14.68a1.07,1.07,0,0,1-1,1.11H247.67a1.07,1.07,0,0,1-1-1.11v-5.22a1.06,1.06,0,0,1,1-1.1h51.69a1.06,1.06,0,0,1,1,1.1Zm0-14.68a1.07,1.07,0,0,1-1,1.11H247.67a1.07,1.07,0,0,1-1-1.11V99.71a1.07,1.07,0,0,1,1-1.11h51.69a1.07,1.07,0,0,1,1,1.11Zm0-14.67a1.06,1.06,0,0,1-1,1.1H247.67a1.06,1.06,0,0,1-1-1.1V85a1.07,1.07,0,0,1,1-1.11h51.69a1.07,1.07,0,0,1,1,1.11Zm0-14.68a1.07,1.07,0,0,1-1,1.11H247.67a1.07,1.07,0,0,1-1-1.11V70.35a1.06,1.06,0,0,1,1-1.1h51.69a1.06,1.06,0,0,1,1,1.1Zm0-14.68a1.07,1.07,0,0,1-1,1.11H247.67a1.07,1.07,0,0,1-1-1.11V55.68a1.07,1.07,0,0,1,1-1.11h51.69a1.07,1.07,0,0,1,1,1.11Zm0-14.67a1.06,1.06,0,0,1-1,1.1H247.67a1.06,1.06,0,0,1-1-1.1V41a1.07,1.07,0,0,1,1-1.11h51.69a1.07,1.07,0,0,1,1,1.11Zm0-14.68a1.07,1.07,0,0,1-1,1.11H247.67a1.07,1.07,0,0,1-1-1.11V26.32a1.06,1.06,0,0,1,1-1.1h51.69a1.06,1.06,0,0,1,1,1.1Zm0-14.68a1.07,1.07,0,0,1-1,1.11H247.67a1.07,1.07,0,0,1-1-1.11V11.65a1.07,1.07,0,0,1,1-1.11h51.69a1.07,1.07,0,0,1,1,1.11Z"/></g><path class="cls-13" d="M253.85,225.33a2,2,0,0,1,.12,1.48v0c-.07.48-1.19,1-2.09,1.23a.71.71,0,0,0-.25.14c-.09-.16-.19-.32-.32-.57a3.47,3.47,0,0,0-.33-.32h0c-1.36-1.19-6.6-5.3-10.76-8.54,1.18-1.47.42-3.15.59-4.53a2.56,2.56,0,0,1,.57-1.29c4.16,4.26,11.42,11.71,11.73,12l.19.15C253.55,225.3,253.61,225.23,253.85,225.33Z"/><path class="cls-14" d="M219,206.21l10.45.43h.17l6.68.28a1.63,1.63,0,0,1,1.57,2.49h0c-.69,1.5-1.08,1.47-1.67,1.35,0,0,.13-.38-.06-.36l-4,.32c-6,.5-15.79,1.13-19.22,1.41-3.15.3-4-3.69-2.36-4.88.41-.56,6.43-8.06,6.43-8.06,1.57.1,3.76,3,4.74,4.92l0,0-.85.64Z"/><path class="cls-13" d="M235.57,203.88l.91,1.9a.59.59,0,0,0-.16.1c-.42.32-.42.55.17.83a1,1,0,0,0-.15.21l-6.68-.28C231.35,206.64,234.15,205.06,235.57,203.88Z"/><path class="cls-13" d="M235.86,211.42a30.74,30.74,0,0,1,.57,3c-.06.29-.16.69-.28,1.14h0l-1.37-1.06-2.55-3.8h0l4-.32a3.77,3.77,0,0,1,.06.46.47.47,0,0,0-.18.48S235.9,211.35,235.86,211.42Z"/><path class="cls-15" d="M236.38,203a3.33,3.33,0,0,1-.81.88c-1.42,1.18-4.22,2.76-5.91,2.76h-.17c-.83-1.25-3.27-4.88-3.27-4.88,1-.92,2-1.93,3-2.91a5.14,5.14,0,0,0,.56-6.95.44.44,0,0,0,.06-.16,6.56,6.56,0,0,1,.05-.69,5.41,5.41,0,0,1,2.08,5.17C233.45,198.68,236.38,203,236.38,203Z"/><path class="cls-14" d="M227.07,188.71c-.38-.26-1,1.12-1.57.62-.39-.4.35-.67,1.28-2.09.36-.34.6-.33.75-.53a8.46,8.46,0,0,0,0-1.39c-.15-2.71-.63-8.41-.63-8.41l-5.12,1.5c-1.57-1.1-1.7-3.44-1.6-4.86h0l.72-.12,7.48-1.24a2,2,0,0,1,2.29,2c-.15,4-.44,11.62-.46,12.06.52.3-.07,3.14-.25,4.79a6.56,6.56,0,0,0-.05.69.44.44,0,0,1-.06.16c-.33.61-1.82.67-2.13.73s-.41.27-.67.08C226.56,192.27,228.08,189.21,227.07,188.71Z"/><path class="cls-16" d="M220.93,194.34l-.68-.89,6.82-4.74c1,.5-.51,3.56,0,4,.26.19.33,0,.67-.08s1.8-.12,2.13-.73a5.14,5.14,0,0,1-.56,6.95c-1,1-2.06,2-3,2.91-2.17,2-4,3.68-4,3.68a2.81,2.81,0,0,0-.42-1.32c-1-1.93-3.17-4.82-4.74-4.92C217.92,198.3,219.64,195.85,220.93,194.34Z"/><path class="cls-17" d="M227.5,185.32a8.46,8.46,0,0,1,0,1.39c-.15.2-.39.19-.75.53-.93,1.42-1.67,1.69-1.28,2.09.61.5,1.19-.88,1.57-.62l-6.82,4.74-.19.13a23.42,23.42,0,0,0-3-3.05,27.39,27.39,0,0,1-6.53-7.3,8.24,8.24,0,0,1-.69-6.13c.11-.4.21-.7.26-.87a2,2,0,0,0,2.64-2.42c.33.06,1,.36,1.86.66a2.91,2.91,0,0,0,1,5.66l.35,0H216l4.45-1.3.08.11c.36.5,5.68,5.49,6.26,6A3.19,3.19,0,0,0,227.5,185.32Z"/><path class="cls-15" d="M221.82,204.12l0,0-.85.64a1.41,1.41,0,0,0,1.32.65A2.81,2.81,0,0,0,221.82,204.12Z"/><path class="cls-18" d="M220.42,178.8,216,180.1h-.05l-.35,0a2.91,2.91,0,0,1-1-5.66,1.46,1.46,0,0,1,.34-.1H215l5.25-1.74c0,.21-.08.53-.11.93-.1,1.42,0,3.74,1.58,4.84l0,0Z"/><path class="cls-19" d="M220.87,173.43l-.72.12h0c0-.4.08-.72.11-.93C220.46,172.67,220.85,173.31,220.87,173.43Z"/><path class="cls-14" d="M212.84,174.05c.51,2.22-1.66,2.59-2.73,2.18-.05-.71,0-2-.65-2.26-.33-.16-2.13.21-3.23-.59s-.94-1.83-1.08-1.95c-.42-.09-.83-.16-.84-.59s.65-1,.82-1.33.25-1.83.43-2.28c.37-1.11,3.92-1.57,5.4-.36,1.09.71.88,3.75,1,4.84A9.14,9.14,0,0,0,212.84,174.05Z"/><path class="cls-18" d="M206.72,184.44c-.33-1.62-1.14-4-1.78-4.59l4.91-2.75a8.24,8.24,0,0,0,.69,6.13l-3.69,2.59A4.06,4.06,0,0,0,206.72,184.44Z"/><path class="cls-19" d="M206.72,184.44a4.06,4.06,0,0,1,.13,1.38c-.55.38-1-.79-1-1Z"/><path class="cls-14" d="M206.72,184.44l-.88.33-6.79,2.6a2,2,0,0,1-2.61-1.6c-.61-4.65-1.85-14.5-1.58-15.6.34-1.44.55-2.12,1.16-2.07.44-1,.76-1.2,1.37-.78,1,.69-.39,2.6,0,3.49.7.74,1.87-.35,2.1.24s-.76.76-1.16,1.08c-.11.1,0,1-.51,1l2.26,9.41,4.88-2.72C205.58,180.41,206.39,182.82,206.72,184.44Z"/><path class="cls-20" d="M212.82,165.12c-.11-.39.81-.61,1.36-.88-.35-.43-3-.2-3.32-.19,0-.13.19-.46.42-.82a14,14,0,0,0-2.69.74c0-.18-.06-.21.25-.57a4.06,4.06,0,0,0-2.11,1.29,1.74,1.74,0,0,1,.25-.79,3.94,3.94,0,0,0-1.42,3.33,2.42,2.42,0,0,1,1.09-.58.91.91,0,0,0-.14.59s.42-.27.65-.21.17.35.17.35a.79.79,0,0,1,.35-.14c1.56.14,1.76.57,1.9,1.12.07.11.12,0,.22.11a14.09,14.09,0,0,1,.15,1.73c.06-.25.15-1.15.66-1.36a.57.57,0,0,1,.4-.09.75.75,0,0,1,.56.9.83.83,0,0,1-.51.68c.14.74.24,1.46.24,1.46l.14-.72.22.64.11-.32.22.32,0-.54a.85.85,0,0,0,1,.27c-.29,0-.51-.53-.55-.86s.63-.54.76-.78a3.44,3.44,0,0,0,.12-3.3c-.15-.37.49-1,.76-1.15C213.82,165.08,213.13,165.32,212.82,165.12Z"/><path class="cls-21" d="M240.2,216.51a14.64,14.64,0,0,0,0-2,7.21,7.21,0,0,1,.49-2.79c.12-.31.26-.63.39-1,.48-1.21.89-2.51.19-3.57a2.56,2.56,0,0,0-1-1c.44,0,2.34-.32,2.41,3a4.79,4.79,0,0,1-1.35,3.75,2.56,2.56,0,0,0-.57,1.29c-.17,1.38.59,3.06-.59,4.53a4.46,4.46,0,0,1-1.27,1c-1.92,1.1-2.46,0-2.69-.25a1.34,1.34,0,0,0,1,.23A3.3,3.3,0,0,0,240.2,216.51Z"/><path class="cls-17" d="M241.3,207.2c.7,1.06.29,2.36-.19,3.57-1.11-.9-.7-2-1.39-2.88a2.46,2.46,0,0,1-.7-1.61h0c.34,0,.74-.34,1.29-.08A2.56,2.56,0,0,1,241.3,207.2Z"/><path class="cls-19" d="M237,206.34a3,3,0,0,1,1.88-.07.29.29,0,0,0,.13,0h0a2.46,2.46,0,0,0,.7,1.61c.69.84.28,2,1.39,2.88-.13.34-.27.66-.39,1a7.21,7.21,0,0,0-.49,2.79,14.64,14.64,0,0,1,0,2,2.21,2.21,0,0,1-2.46,1.19c-.37-.21-.28-.71-.64-1.12a15,15,0,0,0-.35-5.48,2.47,2.47,0,0,0,.29-.28,4.31,4.31,0,0,0,.87-1.4h0a1.63,1.63,0,0,0-1.57-2.49,1,1,0,0,1,.15-.21,1.53,1.53,0,0,1,.31-.26A1.06,1.06,0,0,1,237,206.34Z"/><path class="cls-17" d="M237.74,217.7a2.21,2.21,0,0,0,2.46-1.19,3.3,3.3,0,0,1-2.92,3.27,1.34,1.34,0,0,1-1-.23c-.69-.53-.57-1.84-.31-3.05.05-.2.68-.22,1.16.08S237.37,217.49,237.74,217.7Z"/><path class="cls-18" d="M236.24,210.87a1,1,0,0,1,.8-.05,2.47,2.47,0,0,1-.29.28,15,15,0,0,1,.35,5.48c-.48-.3-1.11-.28-1.16-.08q.1-.47.21-.9c.12-.45.22-.85.28-1.14a18.29,18.29,0,0,0-.09-3.24,1.16,1.16,0,0,0-.28.13A.47.47,0,0,1,236.24,210.87Z"/><path class="cls-13" d="M236.48,205.78l.32.67a1.53,1.53,0,0,0-.31.26c-.59-.28-.59-.51-.17-.83A.59.59,0,0,1,236.48,205.78Z"/><path class="cls-19" d="M236.34,211.22a18.29,18.29,0,0,1,.09,3.24,30.74,30.74,0,0,0-.57-3c0-.07.2-.07.2-.07A1.16,1.16,0,0,1,236.34,211.22Z"/><path class="cls-22" d="M240.31,206.2c.44,0,2.34-.32,2.41,3a4.79,4.79,0,0,1-1.35,3.75,2.56,2.56,0,0,0-.57,1.29c-.17,1.38.59,3.06-.59,4.53a4.46,4.46,0,0,1-1.27,1c-1.92,1.1-2.46,0-2.69-.25"/><path class="cls-23" d="M236.53,206.74l0,0c-.59-.28-.59-.51-.17-.83a.59.59,0,0,1,.16-.1c.27-.11.46.08.53.56a3,3,0,0,1,0,.45"/><path d="M237.68,216.61a.21.21,0,0,0,0-.41.21.21,0,0,0,0,.41Z"/><path d="M237.68,216.71a.3.3,0,0,0,.29-.22.32.32,0,0,0-.08-.32.32.32,0,0,0-.37,0,.31.31,0,0,0-.13.32.26.26,0,0,0,.09.17.3.3,0,0,0,.2.08.11.11,0,0,0,.11-.1.12.12,0,0,0-.11-.11h-.06s0,0,0,0l0,0h0v0s0,0,0,0h0v0h0v0h0v0h0s0,0,0,0h0l0,0s0,0,0,0h0l0,0s0,0,0,0h0s0,0,0,0h.06s0,0,0,0l0,0h0l0,0h0s0,0,0,0v0h0v0h0v0a0,0,0,0,1,0,0v0s0,0,0,0h0s0,0,0,0,0,0,0,0h0s0,0,0,0h-.07a.11.11,0,0,0-.1.11A.11.11,0,0,0,237.68,216.71Z"/><path d="M237.76,215.43a.21.21,0,0,0,0-.41.21.21,0,0,0,0,.41Z"/><path d="M237.76,215.53a.29.29,0,0,0,.28-.21A.32.32,0,0,0,238,215a.3.3,0,0,0-.37,0,.31.31,0,0,0-.13.32.26.26,0,0,0,.09.16.26.26,0,0,0,.21.08.09.09,0,0,0,.1-.1.11.11,0,0,0-.1-.1h0s0,0,0,0h0l0,0h0s0,0,0,0v0s0,0,0,0h0v0h0v0h0v0h0s0,0,0,0v0l0,0h.05s0,0,0,0h.08s0,0,0,0h0s0,0,0,0l0,0h0v0h0v0h0a0,0,0,0,1,0,0h0s0,0,0,0h0s0,0,0,0h-.05a.11.11,0,0,0-.11.1C237.66,215.49,237.7,215.54,237.76,215.53Z"/><path d="M237.71,214.14a.21.21,0,0,0,0-.41.21.21,0,0,0,0,.41Z"/><path d="M237.71,214.24A.3.3,0,0,0,238,214a.34.34,0,0,0-.08-.32.33.33,0,0,0-.38,0,.35.35,0,0,0-.13.33.32.32,0,0,0,.09.16.28.28,0,0,0,.21.08.1.1,0,0,0,.1-.1.09.09,0,0,0-.1-.1h0s0,0,0,0h0s0,0,0,0h0s0,0,0,0v0s0,0,0,0v0s0,0,0,0v0s0,0,0,0v0h0s0,0,0,0h0l0,0h0v0h.13s0,0,0,0h0v0h0s0,0,0,0v0h0s0,0,0,0v0h0s0,0,0,0v0h0s0,0,0,0,0,0,0,0v0h-.06c-.06,0-.11,0-.1.1A.09.09,0,0,0,237.71,214.24Z"/><path d="M237.58,212.86a.21.21,0,0,0,0-.41.21.21,0,0,0,0,.41Z"/><path d="M237.58,213a.3.3,0,0,0,.29-.21.34.34,0,0,0-.08-.32.33.33,0,0,0-.38,0,.32.32,0,0,0-.12.33.25.25,0,0,0,.08.16.28.28,0,0,0,.21.08.1.1,0,0,0,.1-.1.09.09,0,0,0-.1-.1h-.07s0,0,0,0h0s0,0,0,0,0,0,0,0v0s0,0,0,0v0s0,0,0,0v0s0,0,0,0v0h0v0h0l0,0h.13s0,0,0,0h0v0h0s0,0,0,0v0h0s0,0,0,0v0h0s0,0,0,0a0,0,0,0,0,0,0h0l0,0s0,0,0,0v0h-.06c-.05,0-.11,0-.1.1A.09.09,0,0,0,237.58,213Z"/><path d="M237.37,211.6a.21.21,0,0,0,0-.41.21.21,0,0,0,0,.41Z"/><path d="M237.37,211.71a.29.29,0,0,0,.28-.22.31.31,0,0,0-.07-.32.32.32,0,0,0-.38,0,.33.33,0,0,0-.13.32.4.4,0,0,0,.09.17.32.32,0,0,0,.21.08.11.11,0,0,0,.1-.11.1.1,0,0,0-.1-.1h0s0,0,0,0h0l0,0h0v0s0,0,0,0h0v0h0v0h0v0h0s0,0,0,0v0l0,0h0l0,0h0s0,0,0,0h0s0,0,0,0h.06s0,0,0,0v0h0s0,0,0,0v0s0,0,0,0v0h0s0,0,0,0v0h0s0,0,0,0h0a0,0,0,0,1,0,0s0,0,0,0h0s0,0,0,0h0a.09.09,0,0,0-.1.1A.1.1,0,0,0,237.37,211.71Z"/><path class="cls-24" d="M236,216s0,0,0,0l0,0a.38.38,0,0,1,.1,0l.24,0a1.83,1.83,0,0,1,.47,0,1.67,1.67,0,0,1,.74.45c.1.08.24-.06.15-.15a1.83,1.83,0,0,0-1-.53,1.9,1.9,0,0,0-.63,0c-.14,0-.35.17-.25.34s.25,0,.18-.1Z"/><path class="cls-24" d="M237.73,215.12a1.58,1.58,0,0,0-.61.08,4,4,0,0,0-.57.22,2.78,2.78,0,0,0-.53.3.72.72,0,0,0-.2.19.28.28,0,0,0,0,.25c0,.12.23,0,.18-.1s.08-.14.13-.17a.76.76,0,0,1,.19-.12,3.68,3.68,0,0,1,.44-.23,2.11,2.11,0,0,1,1-.22c.13,0,.13-.19,0-.2Z"/><path class="cls-24" d="M236.08,215.39a2.37,2.37,0,0,1,.87.36,2.6,2.6,0,0,1,.38.27,4.13,4.13,0,0,1,.34.39c.08.1.22,0,.14-.15a3.17,3.17,0,0,0-.34-.39,3.91,3.91,0,0,0-.41-.3,2.9,2.9,0,0,0-.93-.38.1.1,0,0,0,0,.2Z"/><path class="cls-24" d="M237.7,213.81a.71.71,0,0,0-.5.23,3.43,3.43,0,0,1-.49.28,1.69,1.69,0,0,0-.68.77c-.05.12.13.22.18.1a1.55,1.55,0,0,1,.6-.69,4,4,0,0,0,.45-.25c.13-.09.26-.25.44-.24s.13-.19,0-.2Z"/><path class="cls-24" d="M236.09,214.11a.84.84,0,0,0,.26.42l.41.35a3.33,3.33,0,0,0,1,.47c.12.05.17-.15,0-.2a2.7,2.7,0,0,1-.91-.42l-.36-.3a.67.67,0,0,1-.26-.38c0-.12-.22-.07-.2.06Z"/><path class="cls-24" d="M237.52,212.55a1.82,1.82,0,0,0-.45.26,3.44,3.44,0,0,0-.41.35c-.12.12-.19.28-.31.4a1,1,0,0,0-.25.4.1.1,0,0,0,.2.06.79.79,0,0,1,.23-.34c.1-.12.17-.26.27-.38a3.37,3.37,0,0,1,.36-.3,1.38,1.38,0,0,1,.42-.25c.12-.05.07-.24-.06-.2Z"/><path class="cls-24" d="M236.11,212.94a.54.54,0,0,0,.23.36,2.38,2.38,0,0,0,.44.25c.15.07.26.2.4.28a1.68,1.68,0,0,0,.49.17c.13,0,.18-.18.05-.2a1.25,1.25,0,0,1-.41-.14c-.13-.07-.24-.18-.36-.25l-.19-.09-.2-.12c-.09-.06-.23-.14-.25-.26a.11.11,0,0,0-.1-.11.1.1,0,0,0-.1.11Z"/><path class="cls-24" d="M237.33,211.31a1,1,0,0,1-.17.11.76.76,0,0,0-.19.12,1.9,1.9,0,0,0-.3.33c-.19.27-.35.57-.52.85a.11.11,0,0,0,.18.11c.17-.28.32-.57.51-.83a1.19,1.19,0,0,1,.28-.31c.11-.09.25-.13.35-.23s-.05-.24-.14-.15Z"/><path class="cls-24" d="M236.06,211.91a5.18,5.18,0,0,1,1.42.78s.11,0,.14,0a.11.11,0,0,0,0-.14,5.47,5.47,0,0,0-1.46-.8c-.12-.05-.18.15-.06.2Z"/><path class="cls-25" d="M238,212.32a1.13,1.13,0,0,0-.41-.69.67.67,0,0,0-.72,0h-.16l-.12,0h0l-.17,0a.29.29,0,0,0-.22.07,1.46,1.46,0,0,0-.33.37,2,2,0,0,0-.28,1c0,.28,0,.68.39.69s.56-.41.62-.69a.28.28,0,0,0,0-.09,1.14,1.14,0,0,0,.07.32,4.46,4.46,0,0,1,.25.55,1,1,0,0,1,0,.66c0,.12.15.18.2.06a1.43,1.43,0,0,0-.15-1.19,1.9,1.9,0,0,1-.14-1,2.22,2.22,0,0,0,.2.48,1.77,1.77,0,0,0,.26.35,1.18,1.18,0,0,1,.27.32c.06.12.24,0,.18-.1s-.36-.37-.5-.6a3,3,0,0,1-.18-.41.93.93,0,0,1-.07-.33.51.51,0,0,1,.07.15c.05.14.08.29.14.42s.34.51.61.42S238,212.57,238,212.32Zm-1.61.67a1.18,1.18,0,0,1-.17.4c-.07.1-.2.22-.33.16s-.11-.2-.11-.3a1.86,1.86,0,0,1,.14-.87,1.39,1.39,0,0,1,.25-.38s.11-.14.17-.15a.3.3,0,0,1,.13,0h0l0,0h0a.14.14,0,0,0,.05.1,1.27,1.27,0,0,0-.16.51A3.54,3.54,0,0,1,236.35,213Zm1.43-.29c0,.07-.06.18-.16.17a.41.41,0,0,1-.23-.18,1.27,1.27,0,0,1-.15-.31,1,1,0,0,0-.29-.55v0a.47.47,0,0,1,.47,0,.82.82,0,0,1,.33.56A.79.79,0,0,1,237.78,212.7Z"/><path class="cls-21" d="M258.85,228.49c0,.71.4,1.69-3.47,4.28-3.18,2.13-10.69,2.44-10,.86a12.18,12.18,0,0,0,5.11.21,5.56,5.56,0,0,0,2.87-1,5.76,5.76,0,0,1,2.76-1.87,2,2,0,0,0,1.33-1,3.11,3.11,0,0,0,.27-2.66h0C258.11,227.64,258.86,227.79,258.85,228.49Z"/><path class="cls-17" d="M257.73,227.31a3.11,3.11,0,0,1-.27,2.66,2,2,0,0,1-1.33,1l0-.05c-.32-.86.12-2,.09-2.5a6.53,6.53,0,0,1,0-2.51A2.78,2.78,0,0,1,257.73,227.31Z"/><path class="cls-19" d="M254,224.58a.6.6,0,0,1,.16.08c.45.29.73.92,1.42,1.06a3.44,3.44,0,0,1,.58.19,6.53,6.53,0,0,0,0,2.51c0,.47-.41,1.64-.09,2.5l0,.05a5.76,5.76,0,0,0-2.76,1.87,5.56,5.56,0,0,1-2.87,1c-.52,0-2-.19-2-1-.1-1.13-.46-1.71-.9-1.71h0a5.39,5.39,0,0,0,1.51-.1c.67-.14,2-.73,2.31-1.63a.13.13,0,0,1,0,.06.76.76,0,0,0,0-.67l-.06-.19c-.05-.14.09-.32.26-.44a.71.71,0,0,1,.25-.14c.9-.25,2-.75,2.09-1.23v0a2,2,0,0,0-.12-1.48c-.24-.1-.3,0-.56-.24a.87.87,0,0,1,.22-.32A.56.56,0,0,1,254,224.58Z"/><path class="cls-19" d="M251.42,228.83a1.14,1.14,0,0,1,0,.61c-.21-1-1.29-.17-.76-1.14A1.24,1.24,0,0,1,251.42,228.83Z"/><path class="cls-18" d="M251.36,228.64l.06.19a1.24,1.24,0,0,0-.8-.53c-.59-.15-.05-.52.35-1a3.47,3.47,0,0,1,.33.32c.13.25.23.41.32.57C251.45,228.32,251.31,228.5,251.36,228.64Z"/><path class="cls-17" d="M248.46,232.89c.06.76,1.52.93,2,1a12.18,12.18,0,0,1-5.11-.21c-.46-2,.59-2.3,1.4-2.43a4.18,4.18,0,0,1,.77,0h0C248,231.18,248.36,231.76,248.46,232.89Z"/><path class="cls-22" d="M257.74,227.31c.37.33,1.12.48,1.11,1.18s.4,1.69-3.47,4.28c-3.18,2.13-10.69,2.44-10,.86"/><path class="cls-23" d="M253.51,224.77c-.24-.28-1-.84-.09-1.12s.83.07.62.93c0,.12-.06.24-.1.37"/><path d="M248.82,231.75a.18.18,0,0,0,.31-.19c-.13-.2-.44,0-.31.19Z"/><path d="M248.74,231.8a.28.28,0,0,0,.14.12.38.38,0,0,0,.15,0,.3.3,0,0,0,.21-.21.29.29,0,0,0,0-.18.23.23,0,0,0-.12-.12.32.32,0,0,0-.17,0,.33.33,0,0,0-.13.07.31.31,0,0,0-.09.14.28.28,0,0,0,0,.2.09.09,0,1,0,.15-.09v0s0,0,0,0h0a0,0,0,0,1,0,0v0h0s0,0,0,0h0v0h0s0,0,0,0l0,0h0s0,0,0,0H249l0,0h0s0,0,0,0l0,0h0v0a0,0,0,0,0,0,0h0s0,0,0,0h0l0,0h0s0,0,0,0h-.1s0,0,0,0v0h0s0,0,0,0a.09.09,0,1,0-.15.09Z"/><path d="M250,231.41a.18.18,0,0,0,.31-.19.18.18,0,0,0-.31.19Z"/><path d="M249.93,231.45a.24.24,0,0,0,.14.12.22.22,0,0,0,.16,0,.27.27,0,0,0,.2-.2.25.25,0,0,0,0-.19.25.25,0,0,0-.12-.11.21.21,0,0,0-.17,0,.27.27,0,0,0-.14.07.28.28,0,0,0-.09.14.26.26,0,0,0,0,.19.1.1,0,0,0,.12,0,.1.1,0,0,0,0-.13v0s0,0,0,0h0a0,0,0,0,1,0,0v0h0s0,0,0,0h0l0,0h0s0,0,0,0h.1v0s0,0,0,0l0,0s0,0,0,0v.07h0s0,0,0,0h0v0h0s0,0,0,0l0,0h-.1s0,0,0,0h0v0s0,0,0,0a.1.1,0,0,0-.13,0A.08.08,0,0,0,249.93,231.45Z"/><path d="M251,230.87a.19.19,0,0,0,.32-.19.19.19,0,0,0-.32.19Z"/><path d="M250.9,230.92a.28.28,0,0,0,.29.12.3.3,0,0,0,.21-.21.27.27,0,0,0,0-.18.23.23,0,0,0-.12-.12.25.25,0,0,0-.17,0,.24.24,0,0,0-.13.07.22.22,0,0,0-.09.14.28.28,0,0,0,0,.2.09.09,0,0,0,.12,0,.1.1,0,0,0,0-.13h0s0,0,0,0h0v-.06h0s0,0,0,0h0l0,0h0l0,0h.09s0,0,0,0h0s0,0,0,0l0,0h0v.07h0s0,0,0,0h0v0h0s0,0,0,0l0,0h0s0,0,0,0h-.11s0,0,0,0a.08.08,0,0,0-.12,0A.1.1,0,0,0,250.9,230.92Z"/><path d="M251.77,230.06c.13.2.44,0,.31-.19a.18.18,0,0,0-.31.19Z"/><path d="M251.69,230.11a.28.28,0,0,0,.15.11.25.25,0,0,0,.15,0,.3.3,0,0,0,.21-.21.29.29,0,0,0,0-.18.23.23,0,0,0-.12-.12.25.25,0,0,0-.17,0,.37.37,0,0,0-.14.07.25.25,0,0,0-.08.14.28.28,0,0,0,0,.2.1.1,0,0,0,.13,0,.09.09,0,0,0,0-.12v0s0,0,0,0h0s0,0,0,0v0a0,0,0,0,1,0-.05v0h0s0,0,0,0v0h0l0,0h0s0,0,0,0h0l0,0H252s0,0,0,0h0s0,0,0,0a0,0,0,0,1,0,0s0,0,0,0h0V230h0v0h0l0,0h0l0,0h-.09s0,0,0,0h0s0,0,0,0a.09.09,0,0,0-.12,0A.11.11,0,0,0,251.69,230.11Z"/><path d="M251.85,228.73a.18.18,0,0,0,.31-.19c-.13-.2-.44,0-.31.19Z"/><path d="M251.77,228.78a.24.24,0,0,0,.14.12.26.26,0,0,0,.15,0,.3.3,0,0,0,.21-.21.29.29,0,0,0,0-.18.25.25,0,0,0-.11-.12.37.37,0,0,0-.18,0,.33.33,0,0,0-.13.07.31.31,0,0,0-.09.14.28.28,0,0,0,0,.2.09.09,0,0,0,.15-.09v0s0,0,0,0h0a0,0,0,0,1,0,0v0h0s0,0,0,0h0v0h0l0,0h0s0,0,0,0h.1l0,0s0,0,0,0h0s0,0,0,0l0,0s0,0,0,0h0v0a0,0,0,0,0,0,0h0s0,0,0,0h0l0,0H252s0,0,0,0h0s0,0,0,0v0h0s0,0,0,0a.09.09,0,1,0-.15.09Z"/><path class="cls-24" d="M249.08,231.63a.72.72,0,0,0-.2-.52.58.58,0,0,0-.51-.23.09.09,0,0,0-.07.12.09.09,0,0,0,.12.07s0,0,0,0h0s0,0,0,0h.06s0,0,0,0l0,0a.75.75,0,0,1,.16.15l0,0h0l0,0,0,0v0h0a.35.35,0,0,1,0,.2.09.09,0,0,0,.1.1.11.11,0,0,0,.11-.1Z"/><path class="cls-24" d="M249.06,231.6v-.26c0-.08,0-.15,0-.22a.3.3,0,0,1,.08-.17l0,0,0,0h.07a.1.1,0,0,0,.13-.07.1.1,0,0,0-.07-.12.38.38,0,0,0-.44.29,1.26,1.26,0,0,0,0,.28c0,.1,0,.21,0,.32a.11.11,0,0,0,.1.1.12.12,0,0,0,.11-.1Z"/><path class="cls-24" d="M250.27,231.3c0-.15-.15-.2-.28-.24l-.5-.14a1.6,1.6,0,0,0-.94,0c-.13,0-.07.25,0,.2a1.2,1.2,0,0,1,.75,0l.38.1.21.06a1,1,0,0,1,.13,0c0,.13.22.13.2,0Z"/><path class="cls-24" d="M250.25,231.27l-.06-.31a2,2,0,0,1,0-.24.26.26,0,0,1,.06-.19.57.57,0,0,1,.21-.13.11.11,0,0,0,0-.14.1.1,0,0,0-.14,0,.63.63,0,0,0-.26.16.49.49,0,0,0-.11.28,1.51,1.51,0,0,0,0,.3c0,.12.05.23.07.35a.11.11,0,0,0,.13.08.12.12,0,0,0,.07-.13Z"/><path class="cls-24" d="M249.89,230.7a1.62,1.62,0,0,1,.64-.18.48.48,0,0,1,.5.21.1.1,0,0,0,.14,0,.11.11,0,0,0,0-.14.67.67,0,0,0-.64-.32,1.67,1.67,0,0,0-.78.22c-.12.06,0,.24.1.17Z"/><path class="cls-24" d="M251.27,230.65c-.06-.18-.13-.36-.18-.54a.58.58,0,0,1,0-.26s0-.14.06-.15.08-.24-.05-.2-.24.36-.21.54a1.7,1.7,0,0,0,.1.32l.12.35c0,.12.24.07.19-.06Z"/><path class="cls-24" d="M250.69,230.24a.71.71,0,0,1,.52-.22,2.16,2.16,0,0,1,.67,0,.1.1,0,0,0,.05-.2,2.21,2.21,0,0,0-.77,0,.87.87,0,0,0-.61.28c-.08.1.06.24.14.14Z"/><path class="cls-24" d="M252,228.61c-.12-.07-.22,0-.31.12l-.25.21a.87.87,0,0,0-.22.21l-.17.28c-.07.11.11.21.18.1s.1-.16.14-.24a.69.69,0,0,1,.17-.17l.21-.18.11-.08,0-.05,0,0h0c.11.06.22-.12.1-.18Z"/><path class="cls-24" d="M250.9,229.09a.5.5,0,0,0,0,.32c0,.13.16.18.27.23a3.18,3.18,0,0,1,.62.35.12.12,0,0,0,.15,0s0-.12,0-.15a2.62,2.62,0,0,0-.59-.33l-.15-.08a.27.27,0,0,1-.1-.06.11.11,0,0,1,0-.1.31.31,0,0,1,0-.13.1.1,0,0,0-.2,0Z"/><path class="cls-25" d="M250.21,230.16c.22.11.48-.11.6-.28a2.91,2.91,0,0,0,.18-.35.34.34,0,0,1,.09-.12,1,1,0,0,1-.11.28,2.37,2.37,0,0,1-.22.33c-.15.18-.39.26-.53.45s.07.21.14.12a1.13,1.13,0,0,1,.29-.24,1.2,1.2,0,0,0,.28-.27,2.7,2.7,0,0,0,.25-.4,1.79,1.79,0,0,1-.27.89,1.28,1.28,0,0,0-.32,1c0,.12.21.1.19,0a.9.9,0,0,1,.07-.58c.08-.16.2-.29.3-.45a1.28,1.28,0,0,0,.11-.27v.08c0,.26.14.65.44.7s.41-.31.45-.55a1.7,1.7,0,0,0-.11-.92,1.48,1.48,0,0,0-.23-.38.24.24,0,0,0-.18-.09h-.18a.2.2,0,0,0-.09-.05h-.14a.62.62,0,0,0-.64-.12,1,1,0,0,0-.46.55C250,229.68,250,230,250.21,230.16Zm1.28-.27a1.08,1.08,0,0,0-.07-.47.12.12,0,0,0,.06-.08h0v0h0a.48.48,0,0,1,.12,0s.1.12.12.16a1.37,1.37,0,0,1,.17.37,1.62,1.62,0,0,1,0,.79c0,.09-.05.21-.15.24s-.22-.09-.26-.18a.85.85,0,0,1-.09-.38C251.44,230.16,251.48,230,251.49,229.89Zm-1.2-.36a.79.79,0,0,1,.38-.44.43.43,0,0,1,.41.08v0a.88.88,0,0,0-.34.44.85.85,0,0,1-.17.25.44.44,0,0,1-.24.13c-.08,0-.11-.11-.11-.18A1.09,1.09,0,0,1,250.29,229.53Z"/><path class="cls-26" d="M196,168.1c.2.13-.49,2.26-.25,3.12C195.72,170.22,196.28,168.06,196,168.1Z"/><path class="cls-26" d="M196.83,171.44c-.28.72-.39,1.81,1,1.72C197.43,173.12,196.67,172.89,196.83,171.44Z"/><path class="cls-26" d="M204.87,179.88a15.51,15.51,0,0,1,1.19,4.81l.66-.25c-.28-1.49-1.13-4-1.78-4.59Z"/><ellipse class="cls-26" cx="210.86" cy="169.56" rx="0.46" ry="0.34" transform="translate(-18.72 312.77) rotate(-70.76)"/><path class="cls-26" d="M208.08,173.91a3.58,3.58,0,0,0,2.19-1.08,2,2,0,0,1-.83,1.13A12.55,12.55,0,0,0,208.08,173.91Z"/><path class="cls-26" d="M210.11,176.23c.68,0,2.95.39,2.55-2.62a1.87,1.87,0,0,1-.38,2.39A2.47,2.47,0,0,1,210.11,176.23Z"/><path class="cls-26" d="M221.89,178.37a6.61,6.61,0,0,1-1.1-4.93l-.64.11c-.1,1.27-.05,3.71,1.6,4.86Z"/><path class="cls-26" d="M217,199.28c1.13.47,3.26,2.92,4,5.45.33-.26.81-.61.81-.61-.09-.37-2.43-4.69-4.74-4.92Z"/><path class="cls-26" d="M217.05,208.06l2-1.85,1.7.07A7.36,7.36,0,0,1,217.05,208.06Z"/><rect class="cls-27" x="228.1" y="36.39" width="9.34" height="29.58" rx="4.67"/><rect class="cls-28" x="208.72" y="41.57" width="9.34" height="29.58" rx="4.67" transform="translate(0.41 114.24) rotate(-30)"/><rect class="cls-29" x="261.76" y="94.68" width="9.34" height="29.58" rx="4.67" transform="translate(38.41 285.47) rotate(-60)"/><rect class="cls-30" x="194.47" y="55.81" width="9.34" height="29.58" rx="4.67" transform="translate(38.43 207.76) rotate(-60)"/><rect class="cls-31" x="256.8" y="85.37" width="29.58" height="9.34" rx="4.67"/><rect class="cls-32" x="178.75" y="85.37" width="29.58" height="9.34" rx="4.67"/><rect class="cls-33" x="251.6" y="65.91" width="29.58" height="9.34" rx="4.67" transform="matrix(0.87, -0.5, 0.5, 0.87, 0.4, 142.65)"/><rect class="cls-34" x="184.36" y="104.75" width="29.58" height="9.34" rx="4.67" transform="translate(-28.03 114.24) rotate(-30)"/><rect class="cls-35" x="237.39" y="51.71" width="29.58" height="9.34" rx="4.67" transform="translate(77.27 246.58) rotate(-60)"/><rect class="cls-36" x="198.56" y="118.95" width="29.58" height="9.34" rx="4.67" transform="translate(-0.38 246.57) rotate(-60)"/><rect class="cls-37" x="228.1" y="114.03" width="9.34" height="29.58" rx="4.67"/></g></g></svg>