<svg xmlns="http://www.w3.org/2000/svg" xmlns:xlink="http://www.w3.org/1999/xlink" viewBox="0 0 456.01 262.12"><defs><style>.cls-1,.cls-19,.cls-2,.cls-20,.cls-26,.cls-3,.cls-4,.cls-5,.cls-6{fill:none;stroke-miterlimit:10;}.cls-1,.cls-2,.cls-3,.cls-4,.cls-5,.cls-6{stroke-width:2px;}.cls-1{stroke:url(#未命名的渐变_26);}.cls-2{stroke:url(#未命名的渐变_26-2);}.cls-3{stroke:url(#未命名的渐变_26-3);}.cls-4{stroke:url(#未命名的渐变_26-4);}.cls-5{stroke:url(#未命名的渐变_26-5);}.cls-6{stroke:url(#未命名的渐变_26-6);}.cls-10,.cls-11,.cls-12,.cls-7,.cls-9{opacity:0.4;}.cls-7{fill:url(#未命名的渐变_26-7);}.cls-8{opacity:0.7;}.cls-9{fill:url(#未命名的渐变_26-8);}.cls-10{fill:url(#未命名的渐变_26-9);}.cls-11{fill:url(#未命名的渐变_26-10);}.cls-12{fill:url(#未命名的渐变_26-11);}.cls-13{fill:#ffb056;}.cls-14{fill:#398eed;}.cls-15{fill:#e49056;}.cls-16{fill:#fae6d2;}.cls-17{fill:#ffeed2;}.cls-18{fill:#ebfcff;}.cls-19{stroke:#e49056;stroke-width:0.25px;}.cls-20{stroke:#4986d9;stroke-width:0.13px;}.cls-21{fill:#8cd7ff;}.cls-22{fill:#45a0e9;}.cls-23{fill:#53b9f5;}.cls-24{fill:url(#未命名的渐变_13);}.cls-25{fill:#40a8f5;}.cls-26{stroke:#368ada;stroke-width:0.44px;}</style><linearGradient id="未命名的渐变_26" x1="1" y1="91.35" x2="1" y2="181.12" gradientUnits="userSpaceOnUse"><stop offset="0" stop-color="#81cfff"/><stop offset="1" stop-color="#5ecfff" stop-opacity="0"/></linearGradient><linearGradient id="未命名的渐变_26-2" x1="455.01" y1="72.11" x2="455.01" y2="161.88" xlink:href="#未命名的渐变_26"/><linearGradient id="未命名的渐变_26-3" x1="40.9" y1="143.88" x2="40.9" y2="199.51" xlink:href="#未命名的渐变_26"/><linearGradient id="未命名的渐变_26-4" x1="64.97" y1="95.36" x2="64.97" y2="123.17" xlink:href="#未命名的渐变_26"/><linearGradient id="未命名的渐变_26-5" x1="397.23" y1="104.2" x2="397.23" y2="132.02" xlink:href="#未命名的渐变_26"/><linearGradient id="未命名的渐变_26-6" x1="424.75" y1="133.49" x2="424.75" y2="189.13" xlink:href="#未命名的渐变_26"/><linearGradient id="未命名的渐变_26-7" x1="232.75" y1="224.43" x2="232.75" y2="262.12" xlink:href="#未命名的渐变_26"/><linearGradient id="未命名的渐变_26-8" x1="349.36" y1="26.68" x2="349.36" y2="204.03" xlink:href="#未命名的渐变_26"/><linearGradient id="未命名的渐变_26-9" x1="201.45" y1="55.61" x2="201.45" y2="204.03" xlink:href="#未命名的渐变_26"/><linearGradient id="未命名的渐变_26-10" x1="122.98" y1="26.68" x2="122.98" y2="204.03" xlink:href="#未命名的渐变_26"/><linearGradient id="未命名的渐变_26-11" x1="273.51" y1="0" x2="273.51" y2="209.54" xlink:href="#未命名的渐变_26"/><linearGradient id="未命名的渐变_13" x1="259.17" y1="173.5" x2="268.71" y2="173.5" gradientUnits="userSpaceOnUse"><stop offset="0" stop-color="#53b9f5"/><stop offset="0.61" stop-color="#8cd7ff"/><stop offset="1" stop-color="#53b9f5"/></linearGradient></defs><title>暂无消息1</title><g id="图层_2" data-name="图层 2"><g id="图层_1-2" data-name="图层 1"><line class="cls-1" x1="1" y1="91.35" x2="1" y2="181.12"/><line class="cls-2" x1="455.01" y1="72.11" x2="455.01" y2="161.88"/><line class="cls-3" x1="40.9" y1="143.88" x2="40.9" y2="199.51"/><line class="cls-4" x1="64.97" y1="95.36" x2="64.97" y2="123.17"/><line class="cls-5" x1="397.23" y1="104.2" x2="397.23" y2="132.02"/><line class="cls-6" x1="424.75" y1="133.49" x2="424.75" y2="189.13"/><path class="cls-7" d="M412.28,262.12c-23-23-61-37.69-179.53-37.69S76.24,239.1,53.21,262.12Z"/><g class="cls-8"><path class="cls-9" d="M380.66,26.68H318.07a2.71,2.71,0,0,0-2.82,2.59V201.44a2.71,2.71,0,0,0,2.82,2.59h62.59a2.72,2.72,0,0,0,2.82-2.59V29.27A2.72,2.72,0,0,0,380.66,26.68ZM328.3,147a.9.9,0,0,1-.95.87h-3.6a.9.9,0,0,1-.95-.87V127.27a.91.91,0,0,1,.95-.87h3.6a.91.91,0,0,1,.95.87Zm0-30.23a.91.91,0,0,1-.95.87h-3.6a.91.91,0,0,1-.95-.87V97a.91.91,0,0,1,.95-.87h3.6a.91.91,0,0,1,.95.87Zm0-30.24a.91.91,0,0,1-.95.87h-3.6a.91.91,0,0,1-.95-.87V66.8a.91.91,0,0,1,.95-.87h3.6a.91.91,0,0,1,.95.87Zm0-30.24a.91.91,0,0,1-.95.87h-3.6a.91.91,0,0,1-.95-.87V36.56a.91.91,0,0,1,.95-.87h3.6a.91.91,0,0,1,.95.87ZM340,147a.9.9,0,0,1-.94.87h-3.61a.91.91,0,0,1-.95-.87V127.27a.92.92,0,0,1,.95-.87h3.61a.91.91,0,0,1,.94.87Zm0-30.23a.91.91,0,0,1-.94.87h-3.61a.92.92,0,0,1-.95-.87V97a.92.92,0,0,1,.95-.87h3.61A.91.91,0,0,1,340,97Zm0-30.24a.91.91,0,0,1-.94.87h-3.61a.92.92,0,0,1-.95-.87V66.8a.92.92,0,0,1,.95-.87h3.61a.91.91,0,0,1,.94.87Zm0-30.24a.91.91,0,0,1-.94.87h-3.61a.92.92,0,0,1-.95-.87V36.56a.92.92,0,0,1,.95-.87h3.61a.91.91,0,0,1,.94.87ZM351.7,147a.9.9,0,0,1-.94.87h-3.61a.9.9,0,0,1-.94-.87V127.27a.91.91,0,0,1,.94-.87h3.61a.91.91,0,0,1,.94.87Zm0-30.23a.91.91,0,0,1-.94.87h-3.61a.91.91,0,0,1-.94-.87V97a.91.91,0,0,1,.94-.87h3.61a.91.91,0,0,1,.94.87Zm0-30.24a.91.91,0,0,1-.94.87h-3.61a.91.91,0,0,1-.94-.87V66.8a.91.91,0,0,1,.94-.87h3.61a.91.91,0,0,1,.94.87Zm0-30.24a.91.91,0,0,1-.94.87h-3.61a.91.91,0,0,1-.94-.87V36.56a.91.91,0,0,1,.94-.87h3.61a.91.91,0,0,1,.94.87ZM363.4,147a.9.9,0,0,1-.94.87h-3.61a.9.9,0,0,1-.94-.87V127.27a.91.91,0,0,1,.94-.87h3.61a.91.91,0,0,1,.94.87Zm0-30.23a.91.91,0,0,1-.94.87h-3.61a.91.91,0,0,1-.94-.87V97a.91.91,0,0,1,.94-.87h3.61a.91.91,0,0,1,.94.87Zm0-30.24a.91.91,0,0,1-.94.87h-3.61a.91.91,0,0,1-.94-.87V66.8a.91.91,0,0,1,.94-.87h3.61a.91.91,0,0,1,.94.87Zm0-30.24a.91.91,0,0,1-.94.87h-3.61a.91.91,0,0,1-.94-.87V36.56a.91.91,0,0,1,.94-.87h3.61a.91.91,0,0,1,.94.87ZM375.11,147a.91.91,0,0,1-.95.87h-3.61a.9.9,0,0,1-.94-.87V127.27a.91.91,0,0,1,.94-.87h3.61a.92.92,0,0,1,.95.87Zm0-30.23a.92.92,0,0,1-.95.87h-3.61a.91.91,0,0,1-.94-.87V97a.91.91,0,0,1,.94-.87h3.61a.92.92,0,0,1,.95.87Zm0-30.24a.92.92,0,0,1-.95.87h-3.61a.91.91,0,0,1-.94-.87V66.8a.91.91,0,0,1,.94-.87h3.61a.92.92,0,0,1,.95.87Zm0-30.24a.92.92,0,0,1-.95.87h-3.61a.91.91,0,0,1-.94-.87V36.56a.91.91,0,0,1,.94-.87h3.61a.92.92,0,0,1,.95.87Z"/><path class="cls-10" d="M231.1,55.61H171.8A2.71,2.71,0,0,0,169,58.2V201.44A2.71,2.71,0,0,0,171.8,204h59.3a2.71,2.71,0,0,0,2.82-2.59V58.2A2.71,2.71,0,0,0,231.1,55.61ZM182.47,159.37a1.16,1.16,0,0,1-1.2,1.11h-5.4a1.16,1.16,0,0,1-1.2-1.11v-5.22a1.15,1.15,0,0,1,1.2-1.1h5.4a1.15,1.15,0,0,1,1.2,1.1Zm0-12.88a1.15,1.15,0,0,1-1.2,1.1h-5.4a1.15,1.15,0,0,1-1.2-1.1v-5.22a1.16,1.16,0,0,1,1.2-1.11h5.4a1.16,1.16,0,0,1,1.2,1.11Zm0-12.89a1.16,1.16,0,0,1-1.2,1.11h-5.4a1.16,1.16,0,0,1-1.2-1.11v-5.22a1.15,1.15,0,0,1,1.2-1.1h5.4a1.15,1.15,0,0,1,1.2,1.1Zm0-12.88a1.15,1.15,0,0,1-1.2,1.1h-5.4a1.15,1.15,0,0,1-1.2-1.1V115.5a1.16,1.16,0,0,1,1.2-1.11h5.4a1.16,1.16,0,0,1,1.2,1.11Zm0-12.89a1.16,1.16,0,0,1-1.2,1.11h-5.4a1.16,1.16,0,0,1-1.2-1.11v-5.21a1.15,1.15,0,0,1,1.2-1.11h5.4a1.15,1.15,0,0,1,1.2,1.11Zm0-12.88a1.15,1.15,0,0,1-1.2,1.1h-5.4a1.15,1.15,0,0,1-1.2-1.1V89.73a1.16,1.16,0,0,1,1.2-1.11h5.4a1.16,1.16,0,0,1,1.2,1.11Zm0-12.89a1.16,1.16,0,0,1-1.2,1.11h-5.4a1.16,1.16,0,0,1-1.2-1.11V76.85a1.15,1.15,0,0,1,1.2-1.11h5.4a1.15,1.15,0,0,1,1.2,1.11Zm0-12.88a1.15,1.15,0,0,1-1.2,1.1h-5.4a1.15,1.15,0,0,1-1.2-1.1V64a1.16,1.16,0,0,1,1.2-1.11h5.4a1.16,1.16,0,0,1,1.2,1.11Zm10.08,90.19a1.16,1.16,0,0,1-1.2,1.11H186a1.16,1.16,0,0,1-1.21-1.11v-5.22a1.16,1.16,0,0,1,1.21-1.1h5.4a1.15,1.15,0,0,1,1.2,1.1Zm0-12.88a1.15,1.15,0,0,1-1.2,1.1H186a1.16,1.16,0,0,1-1.21-1.1v-5.22a1.16,1.16,0,0,1,1.21-1.11h5.4a1.16,1.16,0,0,1,1.2,1.11Zm0-12.89a1.16,1.16,0,0,1-1.2,1.11H186a1.16,1.16,0,0,1-1.21-1.11v-5.22a1.16,1.16,0,0,1,1.21-1.1h5.4a1.15,1.15,0,0,1,1.2,1.1Zm0-12.88a1.15,1.15,0,0,1-1.2,1.1H186a1.16,1.16,0,0,1-1.21-1.1V115.5a1.16,1.16,0,0,1,1.21-1.11h5.4a1.16,1.16,0,0,1,1.2,1.11Zm0-12.89a1.16,1.16,0,0,1-1.2,1.11H186a1.16,1.16,0,0,1-1.21-1.11v-5.21a1.16,1.16,0,0,1,1.21-1.11h5.4a1.15,1.15,0,0,1,1.2,1.11Zm0-12.88a1.15,1.15,0,0,1-1.2,1.1H186a1.16,1.16,0,0,1-1.21-1.1V89.73A1.16,1.16,0,0,1,186,88.62h5.4a1.16,1.16,0,0,1,1.2,1.11Zm0-12.89a1.16,1.16,0,0,1-1.2,1.11H186a1.16,1.16,0,0,1-1.21-1.11V76.85A1.16,1.16,0,0,1,186,75.74h5.4a1.15,1.15,0,0,1,1.2,1.11Zm0-12.88a1.15,1.15,0,0,1-1.2,1.1H186a1.16,1.16,0,0,1-1.21-1.1V64A1.16,1.16,0,0,1,186,62.85h5.4a1.16,1.16,0,0,1,1.2,1.11Zm10.08,90.19a1.16,1.16,0,0,1-1.21,1.11H196a1.16,1.16,0,0,1-1.2-1.11v-5.22a1.15,1.15,0,0,1,1.2-1.1h5.4a1.16,1.16,0,0,1,1.21,1.1Zm0-12.88a1.16,1.16,0,0,1-1.21,1.1H196a1.15,1.15,0,0,1-1.2-1.1v-5.22a1.16,1.16,0,0,1,1.2-1.11h5.4a1.16,1.16,0,0,1,1.21,1.11Zm0-12.89a1.16,1.16,0,0,1-1.21,1.11H196a1.16,1.16,0,0,1-1.2-1.11v-5.22a1.15,1.15,0,0,1,1.2-1.1h5.4a1.16,1.16,0,0,1,1.21,1.1Zm0-12.88a1.16,1.16,0,0,1-1.21,1.1H196a1.15,1.15,0,0,1-1.2-1.1V115.5a1.16,1.16,0,0,1,1.2-1.11h5.4a1.16,1.16,0,0,1,1.21,1.11Zm0-12.89a1.16,1.16,0,0,1-1.21,1.11H196a1.16,1.16,0,0,1-1.2-1.11v-5.21a1.15,1.15,0,0,1,1.2-1.11h5.4a1.16,1.16,0,0,1,1.21,1.11Zm0-12.88a1.16,1.16,0,0,1-1.21,1.1H196a1.15,1.15,0,0,1-1.2-1.1V89.73a1.16,1.16,0,0,1,1.2-1.11h5.4a1.16,1.16,0,0,1,1.21,1.11Zm0-12.89a1.16,1.16,0,0,1-1.21,1.11H196a1.16,1.16,0,0,1-1.2-1.11V76.85a1.15,1.15,0,0,1,1.2-1.11h5.4a1.16,1.16,0,0,1,1.21,1.11Zm0-12.88a1.16,1.16,0,0,1-1.21,1.1H196a1.15,1.15,0,0,1-1.2-1.1V64a1.16,1.16,0,0,1,1.2-1.11h5.4A1.16,1.16,0,0,1,202.63,64Zm25.21,90.19a1.16,1.16,0,0,1-1.2,1.11H206.1a1.16,1.16,0,0,1-1.2-1.11v-5.22a1.15,1.15,0,0,1,1.2-1.1h20.54a1.15,1.15,0,0,1,1.2,1.1Zm0-12.88a1.15,1.15,0,0,1-1.2,1.1H206.1a1.15,1.15,0,0,1-1.2-1.1v-5.22a1.16,1.16,0,0,1,1.2-1.11h20.54a1.16,1.16,0,0,1,1.2,1.11Zm0-12.89a1.16,1.16,0,0,1-1.2,1.11H206.1a1.16,1.16,0,0,1-1.2-1.11v-5.22a1.15,1.15,0,0,1,1.2-1.1h20.54a1.15,1.15,0,0,1,1.2,1.1Zm0-12.88a1.15,1.15,0,0,1-1.2,1.1H206.1a1.15,1.15,0,0,1-1.2-1.1V115.5a1.16,1.16,0,0,1,1.2-1.11h20.54a1.16,1.16,0,0,1,1.2,1.11Zm0-12.89a1.16,1.16,0,0,1-1.2,1.11H206.1a1.16,1.16,0,0,1-1.2-1.11v-5.21a1.15,1.15,0,0,1,1.2-1.11h20.54a1.15,1.15,0,0,1,1.2,1.11Zm0-12.88a1.15,1.15,0,0,1-1.2,1.1H206.1a1.15,1.15,0,0,1-1.2-1.1V89.73a1.16,1.16,0,0,1,1.2-1.11h20.54a1.16,1.16,0,0,1,1.2,1.11Zm0-12.89a1.16,1.16,0,0,1-1.2,1.11H206.1a1.16,1.16,0,0,1-1.2-1.11V76.85a1.15,1.15,0,0,1,1.2-1.11h20.54a1.15,1.15,0,0,1,1.2,1.11Zm0-12.88a1.15,1.15,0,0,1-1.2,1.1H206.1a1.15,1.15,0,0,1-1.2-1.1V64a1.16,1.16,0,0,1,1.2-1.11h20.54a1.16,1.16,0,0,1,1.2,1.11Z"/><path class="cls-11" d="M161.13,26.68H84.83A2.71,2.71,0,0,0,82,29.27V201.44A2.71,2.71,0,0,0,84.83,204h76.3a2.71,2.71,0,0,0,2.82-2.59V29.27A2.71,2.71,0,0,0,161.13,26.68ZM154.34,161a1.16,1.16,0,0,1-1.2,1.11H92.83A1.16,1.16,0,0,1,91.62,161v-5.21a1.16,1.16,0,0,1,1.21-1.11h60.31a1.15,1.15,0,0,1,1.2,1.11Zm0-14.67a1.15,1.15,0,0,1-1.2,1.1H92.83a1.16,1.16,0,0,1-1.21-1.1v-5.22A1.16,1.16,0,0,1,92.83,140h60.31a1.16,1.16,0,0,1,1.2,1.11Zm0-14.68a1.16,1.16,0,0,1-1.2,1.11H92.83a1.16,1.16,0,0,1-1.21-1.11v-5.22a1.16,1.16,0,0,1,1.21-1.1h60.31a1.15,1.15,0,0,1,1.2,1.1Zm0-14.68a1.16,1.16,0,0,1-1.2,1.11H92.83a1.16,1.16,0,0,1-1.21-1.11v-5.21a1.16,1.16,0,0,1,1.21-1.11h60.31a1.15,1.15,0,0,1,1.2,1.11Zm0-14.67a1.15,1.15,0,0,1-1.2,1.1H92.83a1.16,1.16,0,0,1-1.21-1.1V97a1.16,1.16,0,0,1,1.21-1.11h60.31a1.16,1.16,0,0,1,1.2,1.11Zm0-14.68a1.16,1.16,0,0,1-1.2,1.11H92.83a1.16,1.16,0,0,1-1.21-1.11V82.35a1.16,1.16,0,0,1,1.21-1.1h60.31a1.15,1.15,0,0,1,1.2,1.1Zm0-14.68a1.16,1.16,0,0,1-1.2,1.11H92.83a1.16,1.16,0,0,1-1.21-1.11V67.68a1.16,1.16,0,0,1,1.21-1.11h60.31a1.15,1.15,0,0,1,1.2,1.11Zm0-14.67a1.15,1.15,0,0,1-1.2,1.1H92.83a1.16,1.16,0,0,1-1.21-1.1V53a1.16,1.16,0,0,1,1.21-1.11h60.31a1.16,1.16,0,0,1,1.2,1.11Zm0-14.68a1.16,1.16,0,0,1-1.2,1.11H92.83a1.16,1.16,0,0,1-1.21-1.11V38.32a1.16,1.16,0,0,1,1.21-1.1h60.31a1.15,1.15,0,0,1,1.2,1.1Z"/><path class="cls-12" d="M306.21,0H240.82a2.51,2.51,0,0,0-2.42,2.59V206.94a2.51,2.51,0,0,0,2.42,2.6h65.39a2.51,2.51,0,0,0,2.41-2.6V2.59A2.51,2.51,0,0,0,306.21,0Zm-5.82,134.28a1.06,1.06,0,0,1-1,1.1H247.67a1.06,1.06,0,0,1-1-1.1v-5.22a1.07,1.07,0,0,1,1-1.11h51.69a1.07,1.07,0,0,1,1,1.11Zm0-14.68a1.07,1.07,0,0,1-1,1.11H247.67a1.07,1.07,0,0,1-1-1.11v-5.22a1.06,1.06,0,0,1,1-1.1h51.69a1.06,1.06,0,0,1,1,1.1Zm0-14.68a1.07,1.07,0,0,1-1,1.11H247.67a1.07,1.07,0,0,1-1-1.11V99.71a1.07,1.07,0,0,1,1-1.11h51.69a1.07,1.07,0,0,1,1,1.11Zm0-14.67a1.06,1.06,0,0,1-1,1.1H247.67a1.06,1.06,0,0,1-1-1.1V85a1.07,1.07,0,0,1,1-1.11h51.69a1.07,1.07,0,0,1,1,1.11Zm0-14.68a1.07,1.07,0,0,1-1,1.11H247.67a1.07,1.07,0,0,1-1-1.11V70.35a1.06,1.06,0,0,1,1-1.1h51.69a1.06,1.06,0,0,1,1,1.1Zm0-14.68a1.07,1.07,0,0,1-1,1.11H247.67a1.07,1.07,0,0,1-1-1.11V55.68a1.07,1.07,0,0,1,1-1.11h51.69a1.07,1.07,0,0,1,1,1.11Zm0-14.67a1.06,1.06,0,0,1-1,1.1H247.67a1.06,1.06,0,0,1-1-1.1V41a1.07,1.07,0,0,1,1-1.11h51.69a1.07,1.07,0,0,1,1,1.11Zm0-14.68a1.07,1.07,0,0,1-1,1.11H247.67a1.07,1.07,0,0,1-1-1.11V26.32a1.06,1.06,0,0,1,1-1.1h51.69a1.06,1.06,0,0,1,1,1.1Zm0-14.68a1.07,1.07,0,0,1-1,1.11H247.67a1.07,1.07,0,0,1-1-1.11V11.65a1.07,1.07,0,0,1,1-1.11h51.69a1.07,1.07,0,0,1,1,1.11Z"/></g><path d="M206.62,149.06c.06.15.45.76.45.76l.15.14.48-.18.45.31.4-.23s.06-.49.35.1c.12-.27.87-.23,1.75-.75a3.14,3.14,0,0,0,1-2.71c-.1-.61-.69-.94-.34-1.32s.48-.24.75-.08.61-.32,1.63-.65l.27-.08c1.25-.35,1.29-1.37,1.48-2.57s-1.24-2.67-2.41-3.67a7.77,7.77,0,0,0-5.86-1.12c-1.71.52-3.42,1-4.08,4.66a6.39,6.39,0,0,0,1.61,6.05,4.15,4.15,0,0,0,1.07.88C206.13,148.82,206.4,148.52,206.62,149.06Z"/><path class="cls-13" d="M209.66,230.24c-.31-.69-.55-1.55.53-1.07l.09,0,0-5a4.05,4.05,0,0,0-.87.7,28.58,28.58,0,0,0-2.58,2.66c0-.2.06-.38.06-.46,0-.31-.43-.67-.85-.17s-2.56.59-3.84.36a3.91,3.91,0,0,1-.46-.11c-1.11-.37-.79.46-.42,1.12s.42,1.58.54,3.42,2.14,2.27,3.65,2.44c1.32.15,2.25-1.24,4.32-3.11A2.87,2.87,0,0,0,209.66,230.24Z"/><path class="cls-13" d="M209.87,231.08a21.76,21.76,0,0,1,0,2.62c0,1.85,1.92,2.46,3.4,2.77s2.63-1.4,5.55-3.38,5.22-5.69,4.25-6.67c-.9-.59-3.24-.2-5.05,1.19a29.91,29.91,0,0,0-2.81,2.4h0c0-.19.08-.36.1-.44.06-.31-.37-.71-.83-.25s-3.07.33-4.21-.11l-.09,0c-1.08-.48-.84.38-.53,1.07A2.87,2.87,0,0,1,209.87,231.08Z"/><path class="cls-14" d="M201.12,185.08l1.17,20.18,0,22.06c1.28.23,3.48.09,3.84-.36l1.07-20.49,1-16.14a.69.69,0,0,1,.74-.64.73.73,0,0,1,.44.21.68.68,0,0,1,.19.44l.92,17.94-.14,15.95,0,5c1.14.44,3.76.56,4.21.11l1.69-22.26.32-21.75C212.93,185.89,203,185.33,201.12,185.08Z"/><path class="cls-15" d="M195.86,166.83a3.16,3.16,0,0,0,1.34,1,4.88,4.88,0,0,0,3.3.2c-.15-3.55-.28-6.22-.28-6.22l-1-7.76a1.4,1.4,0,0,0-.27.53C198.32,157,196.51,164,195.86,166.83Z"/><path class="cls-13" d="M199.22,154l1,7.76s.13,2.67.28,6.22c.07,1.59.14,3.35.2,5.12.19,5.23.32,10.59.14,11.9a1.22,1.22,0,0,0,.28.06c1.85.25,11.81.81,15.38.23a3.23,3.23,0,0,0,1-.29c-.28-1.58,1.12-21.23,1.12-21.23s2.92,2.15,4.56,3.4a4.79,4.79,0,0,0,.75-1.36h0a26.13,26.13,0,0,0,1-5.44l-5.56-5.27a3.21,3.21,0,0,0-1.67-.84,38.23,38.23,0,0,1-5.36-1.22c-.77,1-5.71,1.53-6.79-.2l-5.54.7A1.35,1.35,0,0,0,199.22,154Z"/><path class="cls-16" d="M196.84,170.37a1.62,1.62,0,0,0,1.06,1.76l2.8,1c-.06-1.77-.13-3.53-.2-5.12a4.88,4.88,0,0,1-3.3-.2Z"/><path class="cls-17" d="M224,165.83l1.91,1.62a.94.94,0,0,0,1.39-.21l8.19-12.8s2.68-2.23,2.66-3.63a3.89,3.89,0,0,0-1.69-2.29c-.25-.05.16-1.28.19-2.66s-.46-1.61-.92-1.61,0,.46,0,1.87-1.68,5.79-2.16,6.66l-7,9-1.5-1.42A26.13,26.13,0,0,1,224,165.83Z"/><path class="cls-17" d="M211.56,146.56a2.89,2.89,0,0,1-.92,2.45c-.77.47-1.43.44-1.53.69l-.33-.69-.33.8-.25-.67-.56.56-.09-.8s-.36.93-.42.8c-.19-.5-.24-.43-.51-.64.12,1.33.47,3.57-.46,3.72l-.55.08c1.08,1.73,6,1.17,6.79.2a2.51,2.51,0,0,1-1.17-.67c-.59-1-.78-2.82,0-3.28a5.87,5.87,0,0,0,1.74-2.22,4.22,4.22,0,0,0,.19-1.33c0-.5.15-.51.28-1h0c-.89.3-1.15.59-1.36.46a.64.64,0,0,0-.87.14C210.94,145.5,211.47,146,211.56,146.56Z"/><path class="cls-18" d="M205.55,234.19c-1.15-.13-2.6-.4-3.28-1.35,0,.89,0,.85,1,1.36s2.62,1.08,3.61.36a29.89,29.89,0,0,0,3-2.9h0a5.22,5.22,0,0,0,0-.58C207.8,233,206.87,234.34,205.55,234.19Z"/><path class="cls-18" d="M212,236.7a4.84,4.84,0,0,0,2.87.08c1-.23,2.82-2.57,4.07-3.26a14.52,14.52,0,0,0,4.16-4.45c1-1.72.51-2.13.17-2.35.42,1.28-1.74,4.55-4.42,6.37-2.92,2-4.07,3.68-5.55,3.38-1.17-.24-2.64-.68-3.19-1.75C209.82,236.15,211,236.36,212,236.7Z"/><path class="cls-19" d="M210.28,229.21l-.09,0c-1.08-.48-.84.38-.53,1.07a2.87,2.87,0,0,1,.21.84"/><path class="cls-19" d="M215.71,231.11c-.67.19-.6-.56-.49-1.09"/><path class="cls-19" d="M207.47,228.63c-.65.25-.65-.5-.6-1"/><path class="cls-20" d="M223.25,226.71h0c.34.22.86.63-.17,2.35a14.52,14.52,0,0,1-4.16,4.45c-1.25.69-3.07,3-4.07,3.26a4.84,4.84,0,0,1-2.87-.08c-.94-.34-2.16-.55-1.89-2"/><path class="cls-20" d="M202.27,232.84h0c0,.89,0,.85,1,1.36s2.62,1.08,3.61.36a29.89,29.89,0,0,0,3-2.9h0"/><path class="cls-21" d="M188.22,63.6a38.35,38.35,0,0,1,3.06,7.25,2.35,2.35,0,0,1-2.87,2c-1.38-1.64-3.14-4.13-4.39-5.82C185.6,67.52,187.91,65,188.22,63.6Z"/><path class="cls-22" d="M266.72,78.57a1.92,1.92,0,0,1,.75,1.53,2,2,0,0,1-3.9,0,1.92,1.92,0,0,1,.75-1.53v1.57a.83.83,0,0,0,.83.83h.74a.83.83,0,0,0,.83-.83Z"/><path class="cls-23" d="M275,61.65h-9.93a.76.76,0,0,0-.76.76V80.14a.83.83,0,0,0,.83.83h.74a.83.83,0,0,0,.83-.83V65.49H275a.34.34,0,0,0,.34-.34V62A.35.35,0,0,0,275,61.65Z"/><path class="cls-24" d="M268.71,113.89V230.72a2.39,2.39,0,0,1-2.39,2.39h-4.76a2.39,2.39,0,0,1-2.39-2.39V113.89h9.54Z"/><path class="cls-25" d="M260.47,102.77v9.58H222.33V85.85a19.07,19.07,0,1,1,38.14,0Z"/><path class="cls-22" d="M260.47,103.41v8.94H237.05V87.63c0-9.82,5.25-19.38,11.71-19.38a19.33,19.33,0,0,1,8.3,6.71,19.61,19.61,0,0,1,3.41,12.67Z"/><path class="cls-22" d="M291.34,106.49a1.07,1.07,0,1,1-1.07,1.07A1.07,1.07,0,0,1,291.34,106.49Z"/><circle class="cls-22" cx="282.21" cy="107.56" r="1.07"/><circle class="cls-22" cx="273.07" cy="107.56" r="1.07"/><circle class="cls-22" cx="263.94" cy="107.56" r="1.07"/><path class="cls-23" d="M295.14,102.77v9.58H260.47v-9.58Zm-2.73,4.79a1.07,1.07,0,1,0-1.07,1.07A1.07,1.07,0,0,0,292.41,107.56Zm-9.13,0a1.08,1.08,0,1,0-1.07,1.07A1.07,1.07,0,0,0,283.28,107.56Zm-9.14,0a1.07,1.07,0,1,0-1.07,1.07A1.07,1.07,0,0,0,274.14,107.56Zm-9.13,0a1.07,1.07,0,1,0-1.07,1.07A1.07,1.07,0,0,0,265,107.56Z"/><polygon class="cls-25" points="295.14 112.35 295.14 113.89 268.71 113.89 260.47 113.89 260.47 112.35 295.14 112.35"/><polygon class="cls-23" points="260.47 112.35 260.47 113.89 259.17 113.89 208.72 113.89 208.72 112.35 222.33 112.35 260.47 112.35"/><path class="cls-21" d="M295.14,85.85v16.92H260.47V85.85A19.07,19.07,0,0,0,241.4,66.78h22.92V78.57a1.92,1.92,0,0,0-.75,1.53,1.95,1.95,0,0,0,3.9,0,1.92,1.92,0,0,0-.75-1.53V66.78h9.35a19.07,19.07,0,0,1,19.07,19.07Z"/><path class="cls-26" d="M226.3,89.09c-5.74,2-23.38-2.57-19.58-9.71a4.58,4.58,0,0,1,5.79-2.22,4.44,4.44,0,0,1,1.71,7.43c-3.17,3.21-17.11,1-19-9.39"/></g></g></svg>