<svg xmlns="http://www.w3.org/2000/svg" xmlns:xlink="http://www.w3.org/1999/xlink" viewBox="0 0 456.01 262.12"><defs><style>.cls-1,.cls-2,.cls-24,.cls-25,.cls-26,.cls-3,.cls-4,.cls-5,.cls-6{fill:none;stroke-miterlimit:10;}.cls-1,.cls-2,.cls-3,.cls-4,.cls-5,.cls-6{stroke-width:2px;}.cls-1{stroke:url(#未命名的渐变_26);}.cls-2{stroke:url(#未命名的渐变_26-2);}.cls-3{stroke:url(#未命名的渐变_26-3);}.cls-4{stroke:url(#未命名的渐变_26-4);}.cls-5{stroke:url(#未命名的渐变_26-5);}.cls-6{stroke:url(#未命名的渐变_26-6);}.cls-10,.cls-11,.cls-12,.cls-7,.cls-9{opacity:0.4;}.cls-7{fill:url(#未命名的渐变_26-7);}.cls-8{opacity:0.7;}.cls-9{fill:url(#未命名的渐变_26-8);}.cls-10{fill:url(#未命名的渐变_26-9);}.cls-11{fill:url(#未命名的渐变_26-10);}.cls-12{fill:url(#未命名的渐变_26-11);}.cls-13{fill:#67c8ff;}.cls-14{fill:#8cd7ff;}.cls-15{fill:#728cb9;}.cls-16{fill:#257fba;}.cls-17{fill:#ffeed2;}.cls-18{fill:#ffb056;}.cls-19{fill:#e49056;}.cls-20{fill:#ebfcff;}.cls-21{fill:#c47038;}.cls-22{fill:#398eed;}.cls-23{fill:#a4c0d9;}.cls-24{stroke:#e49056;}.cls-24,.cls-26{stroke-width:0.25px;}.cls-25{stroke:#4986d9;stroke-width:0.1px;}.cls-26{stroke:#e55c5c;}.cls-26,.cls-27{opacity:0.2;}.cls-27{fill:#e55c5c;}</style><linearGradient id="未命名的渐变_26" x1="455.01" y1="72.11" x2="455.01" y2="161.88" gradientUnits="userSpaceOnUse"><stop offset="0" stop-color="#81cfff"/><stop offset="1" stop-color="#5ecfff" stop-opacity="0"/></linearGradient><linearGradient id="未命名的渐变_26-2" x1="1" y1="91.35" x2="1" y2="181.12" xlink:href="#未命名的渐变_26"/><linearGradient id="未命名的渐变_26-3" x1="40.9" y1="143.88" x2="40.9" y2="199.51" xlink:href="#未命名的渐变_26"/><linearGradient id="未命名的渐变_26-4" x1="64.97" y1="95.36" x2="64.97" y2="123.17" xlink:href="#未命名的渐变_26"/><linearGradient id="未命名的渐变_26-5" x1="397.23" y1="104.2" x2="397.23" y2="132.02" xlink:href="#未命名的渐变_26"/><linearGradient id="未命名的渐变_26-6" x1="424.75" y1="133.49" x2="424.75" y2="189.13" xlink:href="#未命名的渐变_26"/><linearGradient id="未命名的渐变_26-7" x1="232.75" y1="224.43" x2="232.75" y2="262.12" xlink:href="#未命名的渐变_26"/><linearGradient id="未命名的渐变_26-8" x1="349.36" y1="26.68" x2="349.36" y2="204.03" xlink:href="#未命名的渐变_26"/><linearGradient id="未命名的渐变_26-9" x1="201.45" y1="55.61" x2="201.45" y2="204.03" xlink:href="#未命名的渐变_26"/><linearGradient id="未命名的渐变_26-10" x1="122.98" y1="26.68" x2="122.98" y2="204.03" xlink:href="#未命名的渐变_26"/><linearGradient id="未命名的渐变_26-11" x1="273.51" y1="0" x2="273.51" y2="209.54" xlink:href="#未命名的渐变_26"/></defs><title>链接已断开</title><g id="图层_2" data-name="图层 2"><g id="图层_1-2" data-name="图层 1"><line class="cls-1" x1="455.01" y1="72.11" x2="455.01" y2="161.88"/><line class="cls-2" x1="1" y1="91.35" x2="1" y2="181.12"/><line class="cls-3" x1="40.9" y1="143.88" x2="40.9" y2="199.51"/><line class="cls-4" x1="64.97" y1="95.36" x2="64.97" y2="123.17"/><line class="cls-5" x1="397.23" y1="104.2" x2="397.23" y2="132.02"/><line class="cls-6" x1="424.75" y1="133.49" x2="424.75" y2="189.13"/><path class="cls-7" d="M412.28,262.12c-23-23-61-37.69-179.53-37.69S76.24,239.1,53.21,262.12Z"/><g class="cls-8"><path class="cls-9" d="M380.66,26.68H318.07a2.71,2.71,0,0,0-2.82,2.59V201.44a2.71,2.71,0,0,0,2.82,2.59h62.59a2.72,2.72,0,0,0,2.82-2.59V29.27A2.72,2.72,0,0,0,380.66,26.68ZM328.3,147a.9.9,0,0,1-.95.87h-3.6a.9.9,0,0,1-.95-.87V127.27a.91.91,0,0,1,.95-.87h3.6a.91.91,0,0,1,.95.87Zm0-30.23a.91.91,0,0,1-.95.87h-3.6a.91.91,0,0,1-.95-.87V97a.91.91,0,0,1,.95-.87h3.6a.91.91,0,0,1,.95.87Zm0-30.24a.91.91,0,0,1-.95.87h-3.6a.91.91,0,0,1-.95-.87V66.8a.91.91,0,0,1,.95-.87h3.6a.91.91,0,0,1,.95.87Zm0-30.24a.91.91,0,0,1-.95.87h-3.6a.91.91,0,0,1-.95-.87V36.56a.91.91,0,0,1,.95-.87h3.6a.91.91,0,0,1,.95.87ZM340,147a.9.9,0,0,1-.94.87h-3.61a.91.91,0,0,1-.95-.87V127.27a.92.92,0,0,1,.95-.87h3.61a.91.91,0,0,1,.94.87Zm0-30.23a.91.91,0,0,1-.94.87h-3.61a.92.92,0,0,1-.95-.87V97a.92.92,0,0,1,.95-.87h3.61A.91.91,0,0,1,340,97Zm0-30.24a.91.91,0,0,1-.94.87h-3.61a.92.92,0,0,1-.95-.87V66.8a.92.92,0,0,1,.95-.87h3.61a.91.91,0,0,1,.94.87Zm0-30.24a.91.91,0,0,1-.94.87h-3.61a.92.92,0,0,1-.95-.87V36.56a.92.92,0,0,1,.95-.87h3.61a.91.91,0,0,1,.94.87ZM351.7,147a.9.9,0,0,1-.94.87h-3.61a.9.9,0,0,1-.94-.87V127.27a.91.91,0,0,1,.94-.87h3.61a.91.91,0,0,1,.94.87Zm0-30.23a.91.91,0,0,1-.94.87h-3.61a.91.91,0,0,1-.94-.87V97a.91.91,0,0,1,.94-.87h3.61a.91.91,0,0,1,.94.87Zm0-30.24a.91.91,0,0,1-.94.87h-3.61a.91.91,0,0,1-.94-.87V66.8a.91.91,0,0,1,.94-.87h3.61a.91.91,0,0,1,.94.87Zm0-30.24a.91.91,0,0,1-.94.87h-3.61a.91.91,0,0,1-.94-.87V36.56a.91.91,0,0,1,.94-.87h3.61a.91.91,0,0,1,.94.87ZM363.4,147a.9.9,0,0,1-.94.87h-3.61a.9.9,0,0,1-.94-.87V127.27a.91.91,0,0,1,.94-.87h3.61a.91.91,0,0,1,.94.87Zm0-30.23a.91.91,0,0,1-.94.87h-3.61a.91.91,0,0,1-.94-.87V97a.91.91,0,0,1,.94-.87h3.61a.91.91,0,0,1,.94.87Zm0-30.24a.91.91,0,0,1-.94.87h-3.61a.91.91,0,0,1-.94-.87V66.8a.91.91,0,0,1,.94-.87h3.61a.91.91,0,0,1,.94.87Zm0-30.24a.91.91,0,0,1-.94.87h-3.61a.91.91,0,0,1-.94-.87V36.56a.91.91,0,0,1,.94-.87h3.61a.91.91,0,0,1,.94.87ZM375.11,147a.91.91,0,0,1-.95.87h-3.61a.9.9,0,0,1-.94-.87V127.27a.91.91,0,0,1,.94-.87h3.61a.92.92,0,0,1,.95.87Zm0-30.23a.92.92,0,0,1-.95.87h-3.61a.91.91,0,0,1-.94-.87V97a.91.91,0,0,1,.94-.87h3.61a.92.92,0,0,1,.95.87Zm0-30.24a.92.92,0,0,1-.95.87h-3.61a.91.91,0,0,1-.94-.87V66.8a.91.91,0,0,1,.94-.87h3.61a.92.92,0,0,1,.95.87Zm0-30.24a.92.92,0,0,1-.95.87h-3.61a.91.91,0,0,1-.94-.87V36.56a.91.91,0,0,1,.94-.87h3.61a.92.92,0,0,1,.95.87Z"/><path class="cls-10" d="M231.1,55.61H171.8A2.71,2.71,0,0,0,169,58.2V201.44A2.71,2.71,0,0,0,171.8,204h59.3a2.71,2.71,0,0,0,2.82-2.59V58.2A2.71,2.71,0,0,0,231.1,55.61ZM182.47,159.37a1.16,1.16,0,0,1-1.2,1.11h-5.4a1.16,1.16,0,0,1-1.2-1.11v-5.22a1.15,1.15,0,0,1,1.2-1.1h5.4a1.15,1.15,0,0,1,1.2,1.1Zm0-12.88a1.15,1.15,0,0,1-1.2,1.1h-5.4a1.15,1.15,0,0,1-1.2-1.1v-5.22a1.16,1.16,0,0,1,1.2-1.11h5.4a1.16,1.16,0,0,1,1.2,1.11Zm0-12.89a1.16,1.16,0,0,1-1.2,1.11h-5.4a1.16,1.16,0,0,1-1.2-1.11v-5.22a1.15,1.15,0,0,1,1.2-1.1h5.4a1.15,1.15,0,0,1,1.2,1.1Zm0-12.88a1.15,1.15,0,0,1-1.2,1.1h-5.4a1.15,1.15,0,0,1-1.2-1.1V115.5a1.16,1.16,0,0,1,1.2-1.11h5.4a1.16,1.16,0,0,1,1.2,1.11Zm0-12.89a1.16,1.16,0,0,1-1.2,1.11h-5.4a1.16,1.16,0,0,1-1.2-1.11v-5.21a1.15,1.15,0,0,1,1.2-1.11h5.4a1.15,1.15,0,0,1,1.2,1.11Zm0-12.88a1.15,1.15,0,0,1-1.2,1.1h-5.4a1.15,1.15,0,0,1-1.2-1.1V89.73a1.16,1.16,0,0,1,1.2-1.11h5.4a1.16,1.16,0,0,1,1.2,1.11Zm0-12.89a1.16,1.16,0,0,1-1.2,1.11h-5.4a1.16,1.16,0,0,1-1.2-1.11V76.85a1.15,1.15,0,0,1,1.2-1.11h5.4a1.15,1.15,0,0,1,1.2,1.11Zm0-12.88a1.15,1.15,0,0,1-1.2,1.1h-5.4a1.15,1.15,0,0,1-1.2-1.1V64a1.16,1.16,0,0,1,1.2-1.11h5.4a1.16,1.16,0,0,1,1.2,1.11Zm10.08,90.19a1.16,1.16,0,0,1-1.2,1.11H186a1.16,1.16,0,0,1-1.21-1.11v-5.22a1.16,1.16,0,0,1,1.21-1.1h5.4a1.15,1.15,0,0,1,1.2,1.1Zm0-12.88a1.15,1.15,0,0,1-1.2,1.1H186a1.16,1.16,0,0,1-1.21-1.1v-5.22a1.16,1.16,0,0,1,1.21-1.11h5.4a1.16,1.16,0,0,1,1.2,1.11Zm0-12.89a1.16,1.16,0,0,1-1.2,1.11H186a1.16,1.16,0,0,1-1.21-1.11v-5.22a1.16,1.16,0,0,1,1.21-1.1h5.4a1.15,1.15,0,0,1,1.2,1.1Zm0-12.88a1.15,1.15,0,0,1-1.2,1.1H186a1.16,1.16,0,0,1-1.21-1.1V115.5a1.16,1.16,0,0,1,1.21-1.11h5.4a1.16,1.16,0,0,1,1.2,1.11Zm0-12.89a1.16,1.16,0,0,1-1.2,1.11H186a1.16,1.16,0,0,1-1.21-1.11v-5.21a1.16,1.16,0,0,1,1.21-1.11h5.4a1.15,1.15,0,0,1,1.2,1.11Zm0-12.88a1.15,1.15,0,0,1-1.2,1.1H186a1.16,1.16,0,0,1-1.21-1.1V89.73A1.16,1.16,0,0,1,186,88.62h5.4a1.16,1.16,0,0,1,1.2,1.11Zm0-12.89a1.16,1.16,0,0,1-1.2,1.11H186a1.16,1.16,0,0,1-1.21-1.11V76.85A1.16,1.16,0,0,1,186,75.74h5.4a1.15,1.15,0,0,1,1.2,1.11Zm0-12.88a1.15,1.15,0,0,1-1.2,1.1H186a1.16,1.16,0,0,1-1.21-1.1V64A1.16,1.16,0,0,1,186,62.85h5.4a1.16,1.16,0,0,1,1.2,1.11Zm10.08,90.19a1.16,1.16,0,0,1-1.21,1.11H196a1.16,1.16,0,0,1-1.2-1.11v-5.22a1.15,1.15,0,0,1,1.2-1.1h5.4a1.16,1.16,0,0,1,1.21,1.1Zm0-12.88a1.16,1.16,0,0,1-1.21,1.1H196a1.15,1.15,0,0,1-1.2-1.1v-5.22a1.16,1.16,0,0,1,1.2-1.11h5.4a1.16,1.16,0,0,1,1.21,1.11Zm0-12.89a1.16,1.16,0,0,1-1.21,1.11H196a1.16,1.16,0,0,1-1.2-1.11v-5.22a1.15,1.15,0,0,1,1.2-1.1h5.4a1.16,1.16,0,0,1,1.21,1.1Zm0-12.88a1.16,1.16,0,0,1-1.21,1.1H196a1.15,1.15,0,0,1-1.2-1.1V115.5a1.16,1.16,0,0,1,1.2-1.11h5.4a1.16,1.16,0,0,1,1.21,1.11Zm0-12.89a1.16,1.16,0,0,1-1.21,1.11H196a1.16,1.16,0,0,1-1.2-1.11v-5.21a1.15,1.15,0,0,1,1.2-1.11h5.4a1.16,1.16,0,0,1,1.21,1.11Zm0-12.88a1.16,1.16,0,0,1-1.21,1.1H196a1.15,1.15,0,0,1-1.2-1.1V89.73a1.16,1.16,0,0,1,1.2-1.11h5.4a1.16,1.16,0,0,1,1.21,1.11Zm0-12.89a1.16,1.16,0,0,1-1.21,1.11H196a1.16,1.16,0,0,1-1.2-1.11V76.85a1.15,1.15,0,0,1,1.2-1.11h5.4a1.16,1.16,0,0,1,1.21,1.11Zm0-12.88a1.16,1.16,0,0,1-1.21,1.1H196a1.15,1.15,0,0,1-1.2-1.1V64a1.16,1.16,0,0,1,1.2-1.11h5.4A1.16,1.16,0,0,1,202.63,64Zm25.21,90.19a1.16,1.16,0,0,1-1.2,1.11H206.1a1.16,1.16,0,0,1-1.2-1.11v-5.22a1.15,1.15,0,0,1,1.2-1.1h20.54a1.15,1.15,0,0,1,1.2,1.1Zm0-12.88a1.15,1.15,0,0,1-1.2,1.1H206.1a1.15,1.15,0,0,1-1.2-1.1v-5.22a1.16,1.16,0,0,1,1.2-1.11h20.54a1.16,1.16,0,0,1,1.2,1.11Zm0-12.89a1.16,1.16,0,0,1-1.2,1.11H206.1a1.16,1.16,0,0,1-1.2-1.11v-5.22a1.15,1.15,0,0,1,1.2-1.1h20.54a1.15,1.15,0,0,1,1.2,1.1Zm0-12.88a1.15,1.15,0,0,1-1.2,1.1H206.1a1.15,1.15,0,0,1-1.2-1.1V115.5a1.16,1.16,0,0,1,1.2-1.11h20.54a1.16,1.16,0,0,1,1.2,1.11Zm0-12.89a1.16,1.16,0,0,1-1.2,1.11H206.1a1.16,1.16,0,0,1-1.2-1.11v-5.21a1.15,1.15,0,0,1,1.2-1.11h20.54a1.15,1.15,0,0,1,1.2,1.11Zm0-12.88a1.15,1.15,0,0,1-1.2,1.1H206.1a1.15,1.15,0,0,1-1.2-1.1V89.73a1.16,1.16,0,0,1,1.2-1.11h20.54a1.16,1.16,0,0,1,1.2,1.11Zm0-12.89a1.16,1.16,0,0,1-1.2,1.11H206.1a1.16,1.16,0,0,1-1.2-1.11V76.85a1.15,1.15,0,0,1,1.2-1.11h20.54a1.15,1.15,0,0,1,1.2,1.11Zm0-12.88a1.15,1.15,0,0,1-1.2,1.1H206.1a1.15,1.15,0,0,1-1.2-1.1V64a1.16,1.16,0,0,1,1.2-1.11h20.54a1.16,1.16,0,0,1,1.2,1.11Z"/><path class="cls-11" d="M161.13,26.68H84.83A2.71,2.71,0,0,0,82,29.27V201.44A2.71,2.71,0,0,0,84.83,204h76.3a2.71,2.71,0,0,0,2.82-2.59V29.27A2.71,2.71,0,0,0,161.13,26.68ZM154.34,161a1.16,1.16,0,0,1-1.2,1.11H92.83A1.16,1.16,0,0,1,91.62,161v-5.21a1.16,1.16,0,0,1,1.21-1.11h60.31a1.15,1.15,0,0,1,1.2,1.11Zm0-14.67a1.15,1.15,0,0,1-1.2,1.1H92.83a1.16,1.16,0,0,1-1.21-1.1v-5.22A1.16,1.16,0,0,1,92.83,140h60.31a1.16,1.16,0,0,1,1.2,1.11Zm0-14.68a1.16,1.16,0,0,1-1.2,1.11H92.83a1.16,1.16,0,0,1-1.21-1.11v-5.22a1.16,1.16,0,0,1,1.21-1.1h60.31a1.15,1.15,0,0,1,1.2,1.1Zm0-14.68a1.16,1.16,0,0,1-1.2,1.11H92.83a1.16,1.16,0,0,1-1.21-1.11v-5.21a1.16,1.16,0,0,1,1.21-1.11h60.31a1.15,1.15,0,0,1,1.2,1.11Zm0-14.67a1.15,1.15,0,0,1-1.2,1.1H92.83a1.16,1.16,0,0,1-1.21-1.1V97a1.16,1.16,0,0,1,1.21-1.11h60.31a1.16,1.16,0,0,1,1.2,1.11Zm0-14.68a1.16,1.16,0,0,1-1.2,1.11H92.83a1.16,1.16,0,0,1-1.21-1.11V82.35a1.16,1.16,0,0,1,1.21-1.1h60.31a1.15,1.15,0,0,1,1.2,1.1Zm0-14.68a1.16,1.16,0,0,1-1.2,1.11H92.83a1.16,1.16,0,0,1-1.21-1.11V67.68a1.16,1.16,0,0,1,1.21-1.11h60.31a1.15,1.15,0,0,1,1.2,1.11Zm0-14.67a1.15,1.15,0,0,1-1.2,1.1H92.83a1.16,1.16,0,0,1-1.21-1.1V53a1.16,1.16,0,0,1,1.21-1.11h60.31a1.16,1.16,0,0,1,1.2,1.11Zm0-14.68a1.16,1.16,0,0,1-1.2,1.11H92.83a1.16,1.16,0,0,1-1.21-1.11V38.32a1.16,1.16,0,0,1,1.21-1.1h60.31a1.15,1.15,0,0,1,1.2,1.1Z"/><path class="cls-12" d="M306.21,0H240.82a2.51,2.51,0,0,0-2.42,2.59V206.94a2.51,2.51,0,0,0,2.42,2.6h65.39a2.51,2.51,0,0,0,2.41-2.6V2.59A2.51,2.51,0,0,0,306.21,0Zm-5.82,134.28a1.06,1.06,0,0,1-1,1.1H247.67a1.06,1.06,0,0,1-1-1.1v-5.22a1.07,1.07,0,0,1,1-1.11h51.69a1.07,1.07,0,0,1,1,1.11Zm0-14.68a1.07,1.07,0,0,1-1,1.11H247.67a1.07,1.07,0,0,1-1-1.11v-5.22a1.06,1.06,0,0,1,1-1.1h51.69a1.06,1.06,0,0,1,1,1.1Zm0-14.68a1.07,1.07,0,0,1-1,1.11H247.67a1.07,1.07,0,0,1-1-1.11V99.71a1.07,1.07,0,0,1,1-1.11h51.69a1.07,1.07,0,0,1,1,1.11Zm0-14.67a1.06,1.06,0,0,1-1,1.1H247.67a1.06,1.06,0,0,1-1-1.1V85a1.07,1.07,0,0,1,1-1.11h51.69a1.07,1.07,0,0,1,1,1.11Zm0-14.68a1.07,1.07,0,0,1-1,1.11H247.67a1.07,1.07,0,0,1-1-1.11V70.35a1.06,1.06,0,0,1,1-1.1h51.69a1.06,1.06,0,0,1,1,1.1Zm0-14.68a1.07,1.07,0,0,1-1,1.11H247.67a1.07,1.07,0,0,1-1-1.11V55.68a1.07,1.07,0,0,1,1-1.11h51.69a1.07,1.07,0,0,1,1,1.11Zm0-14.67a1.06,1.06,0,0,1-1,1.1H247.67a1.06,1.06,0,0,1-1-1.1V41a1.07,1.07,0,0,1,1-1.11h51.69a1.07,1.07,0,0,1,1,1.11Zm0-14.68a1.07,1.07,0,0,1-1,1.11H247.67a1.07,1.07,0,0,1-1-1.11V26.32a1.06,1.06,0,0,1,1-1.1h51.69a1.06,1.06,0,0,1,1,1.1Zm0-14.68a1.07,1.07,0,0,1-1,1.11H247.67a1.07,1.07,0,0,1-1-1.11V11.65a1.07,1.07,0,0,1,1-1.11h51.69a1.07,1.07,0,0,1,1,1.11Z"/></g><path class="cls-13" d="M209.28,123.4l-10.74,9.37A16.08,16.08,0,0,0,197,155.45h0A16.07,16.07,0,0,0,219.68,157l11.08-9.67,10.17-.34a.77.77,0,0,1,.79.9l-2,11-11.34,9.89a30.67,30.67,0,0,1-43.28-2.94h0A30.67,30.67,0,0,1,188,122.56l11.64-10.16,10.69-.43a.77.77,0,0,1,.79.9Z"/><path class="cls-13" d="M244.37,135.44l19.2-16.76A16.07,16.07,0,0,0,265.11,96h0a16.07,16.07,0,0,0-22.68-1.54l-19.6,17.11c-.3.26-.68.11-.59-.24l1.63-9.56a.77.77,0,0,0-.78-.9l-9.63.26c-.36.06-.47-.35-.17-.62l20.44-17.84A30.68,30.68,0,0,1,277,85.61h0a30.67,30.67,0,0,1-2.93,43.28l-20.81,18.17c-.3.26-.68.11-.59-.24l1.75-10a.76.76,0,0,0-.77-.89l-9.12.18C244.18,136.12,244.07,135.71,244.37,135.44Z"/><rect class="cls-14" x="173.23" y="136.25" width="18.41" height="63.84" rx="9.2" transform="matrix(0.66, 0.75, -0.75, 0.66, 189.16, -79.85)"/><rect class="cls-14" x="268.93" y="52.71" width="18.41" height="63.84" rx="9.2" transform="translate(158.99 -180.56) rotate(48.88)"/><path class="cls-15" d="M304.6,165.76l-1.1.37a1.55,1.55,0,0,1-.38-1.68,1.7,1.7,0,0,0,.51.05,1.75,1.75,0,0,0,.8-.22h0C304,164.62,304.4,165.54,304.6,165.76Z"/><path class="cls-16" d="M313.74,181l-.07,2a4.84,4.84,0,0,1-.57.1A12.35,12.35,0,0,1,313.74,181Z"/><path class="cls-17" d="M311.64,179l3.44-7.63,1.14-2.54-1.14-2.7-.78-1.84v0a9.76,9.76,0,0,0,4.36-2.39l2.35,5.68a2.09,2.09,0,0,1-.15,1.9l-4.79,7.74-1.87,3-.45.73a12.35,12.35,0,0,0-.64,2.11,2.41,2.41,0,0,1-1.91-.55,2.7,2.7,0,0,1-.69-1.84,3.81,3.81,0,0,1,.81-.93Z"/><path class="cls-18" d="M292.55,161.69a2.16,2.16,0,0,1-.83-.5l3.34-9.09a3.09,3.09,0,0,1,3.33-2.31c1.25.14,2.63.28,3.34.32a2,2,0,0,0,2.22,2.41c2,0,3.42-.78,3.74-1.91l5.18,1.12a3.34,3.34,0,0,1,2.41,2l3.87,7.45a3,3,0,0,1-.5.68,9.76,9.76,0,0,1-4.36,2.39v0l.78,1.84a25.47,25.47,0,0,0,0,5.24L311.64,179a3.75,3.75,0,0,0-.83.48,2,2,0,0,0-.36.35c-.63.81-1,2.21-4.62,3.58a4.65,4.65,0,0,1-1,.36,10,10,0,0,1-3.71.06,22.72,22.72,0,0,1-2.43-.47c-.15-.49.76-7.57,1.16-14,.05-.73.07-1.41.05-2.05l3.61-1.22,1.1-.37.55-.19a5.82,5.82,0,0,1,2.52.49l.22.37c-1,.57.17,2.33.71,2.4s1.47-.9,2.23-1.47.52-1,.44-1.27-.58-2.46-1-2.66a30.25,30.25,0,0,0-5.1-.1l-.51,0a1.57,1.57,0,0,0-1.11-.33,1.3,1.3,0,0,0-1.16.58l-2.82.31a12.41,12.41,0,0,0-1.32-4.13s-.24.83-.69,2.34a2.35,2.35,0,0,1-1.22.23A11.7,11.7,0,0,1,292.55,161.69Z"/><path class="cls-19" d="M316.06,177.19c.39,1.46-.84,4.51-1.06,5a9.32,9.32,0,0,1-.81-2Z"/><path class="cls-20" d="M315.07,229.86c.31,1.42-.21,1.9-1.1,2.9a23,23,0,0,0-2,3.31,21,21,0,0,0-1,2.64c-.23.6-1.15.89-1.81,1s-3.84-.08-3.89-.31a2.12,2.12,0,0,1-.09-1.23c.21.52.72.67,2,.77,1.92.14,2.89.05,3.42-1.06s1.61-3.94,2.89-5.28A5.06,5.06,0,0,0,315.07,229.86Z"/><path class="cls-18" d="M314,225.64c.06-.37.2-.69.58-.61s-.19.58-.21,1.35.66,1.63.75,2.71a3.32,3.32,0,0,1,0,.77,5.06,5.06,0,0,1-1.55,2.75c-1.28,1.34-2.37,4.18-2.89,5.28s-1.5,1.2-3.42,1.06c-1.29-.1-1.8-.25-2-.77a3.33,3.33,0,0,1-.15-1c-.05-1.4,1.76-2.6,2.66-3.82s1.76-4.55,2.08-5.59a4,4,0,0,0-.21-2.55.72.72,0,0,1,.41-.2c.64-.14,1.75,0,1.79.16s-.14,1.75.2,1.73,1.87.08,1.93-.27C313.93,226.42,313.91,226,314,225.64Z"/><path class="cls-21" d="M314.19,180.22a9.32,9.32,0,0,0,.81,2,1.61,1.61,0,0,1-1.33,1V183l.07-2Z"/><path class="cls-22" d="M313.1,183.06a4.84,4.84,0,0,0,.57-.1v.25l-.53,17s2.35,21.23,2.64,23.54c-.19.4-1,.71-2,.9a10.15,10.15,0,0,1-3.85,0,3.47,3.47,0,0,1-.62-.21l-2.19-21.22h0l-.33-3.26-2-16.15a4.65,4.65,0,0,0,1-.36c3.66-1.37,4-2.77,4.62-3.58l0,0c0,.16,0,.45,0,.8a2.7,2.7,0,0,0,.69,1.84A2.41,2.41,0,0,0,313.1,183.06Z"/><path class="cls-17" d="M313.78,224.64l.19,1c-.06.36,0,.78-.06,1-.06.35-1.59.26-1.93.27s-.16-1.46-.2-1.73-1.15-.3-1.79-.16l-.06-.37A10.15,10.15,0,0,0,313.78,224.64Z"/><path class="cls-21" d="M311.64,179l-.33.74a3.81,3.81,0,0,0-.81.93c0-.35,0-.64,0-.8l0,0a2,2,0,0,1,.36-.35A3.75,3.75,0,0,1,311.64,179Z"/><path class="cls-17" d="M307.89,166.43l-.22-.37a5.82,5.82,0,0,0-2.52-.49l-.55.19c-.2-.22-.58-1.14-.16-1.47h0a.65.65,0,0,0,.41-.56.49.49,0,0,0-.16-.34l.51,0a30.25,30.25,0,0,1,5.1.1c.4.2.89,2.35,1,2.66s.31.71-.44,1.27-1.69,1.55-2.23,1.47S306.85,167,307.89,166.43Z"/><path class="cls-19" d="M307.21,224c.06.77.6,1.57.48,2.37-.06.4,0,1,0,1.5-.69.84-2.63,1-3.37,1.05s-3.79.58-4.91.66a9.21,9.21,0,0,0-3.1,1.14c-.68.34-1.74.31-4.08.43s-1.92-.33-2.13-.6c0-.49-.28-.74,0-1.38s2.49-1.24,3.7-1.35,4.45-1.77,5.57-2.44,1.3-3.51,1.18-4c.22,0,.44.29.72.42s-.2.89.06,1.74c0,.12.15.21.33.27a11,11,0,0,0,4.15-.21,1.06,1.06,0,0,0,.33-.1c.26-.17.16-.87.23-1.12s1,0,.88.16A3.51,3.51,0,0,0,307.21,224Z"/><path d="M309,145c.21-1.54.82-3.94-.4-5.67a4.94,4.94,0,0,0-4.2-2.44c-1.62,0-4.22.87-4.63,2.79-.31.2-.91-.16-1.25,1.07s1.38,2.49.13,3a9.4,9.4,0,0,0,1.43-.06,4.24,4.24,0,0,0,1.51-.42,7,7,0,0,1,2.81-1.09,4.39,4.39,0,0,1,2.62,1,6.12,6.12,0,0,1,0,4.28h0a1,1,0,0,0,1.27.53c-.53-.08-.79-.31-.67-.67S308.73,146.57,309,145Z"/><path class="cls-16" d="M307.12,203.18l.33,18.35a4,4,0,0,1-1.72.46,10.82,10.82,0,0,1-4-.47l-.65-.22V183.83h0a10,10,0,0,0,3.71-.06l2,16.15.33,3.26Z"/><path class="cls-17" d="M307,143.19a6.12,6.12,0,0,1,0,4.28l-.35.32a3.74,3.74,0,0,1-2.32.85,3.56,3.56,0,0,1-1.7-.44,5.52,5.52,0,0,1-2.62-4.52,4.24,4.24,0,0,0,1.51-.42,7,7,0,0,1,2.81-1.09A4.39,4.39,0,0,1,307,143.19Z"/><path class="cls-20" d="M307.65,227.82a1.35,1.35,0,0,1-.94,1.22,37.3,37.3,0,0,1-5.87.81c-1.72.2-2.35.87-3.84,1.43s-5.07.57-6.27.51-.7-.81-.67-1.29c.21.27-.2.72,2.13.6s3.4-.09,4.08-.43a9.21,9.21,0,0,1,3.1-1.14c1.12-.08,4.16-.56,4.91-.66S307,228.66,307.65,227.82Z"/><path class="cls-17" d="M306.67,147.79c0,.7-.15,2.55,1,2.82-.32,1.13-1.75,1.94-3.74,1.91a2,2,0,0,1-2.22-2.41c1.49.09,1-1.66.92-1.91a3.56,3.56,0,0,0,1.7.44A3.74,3.74,0,0,0,306.67,147.79Z"/><path class="cls-17" d="M305.73,222l0,1.61a11,11,0,0,1-4.15.21,10.1,10.1,0,0,0,.14-2.29h0A10.82,10.82,0,0,0,305.73,222Z"/><path class="cls-23" d="M304.68,163.38a.49.49,0,0,1,.16.34.65.65,0,0,1-.41.56,1.75,1.75,0,0,1-.8.22,1.7,1.7,0,0,1-.51-.05c-.43-.09-.74-.33-.75-.62a.45.45,0,0,1,0-.2,1.3,1.3,0,0,1,1.16-.58A1.57,1.57,0,0,1,304.68,163.38Z"/><path class="cls-17" d="M299.59,163.94l2.82-.31a.45.45,0,0,0,0,.2c0,.29.32.53.75.62a1.55,1.55,0,0,0,.38,1.68l-3.61,1.22-7,2.37a1.51,1.51,0,0,1-1.94-1.81l1.62-6.22a11.7,11.7,0,0,0,3.81.69l-.75,2Z"/><path class="cls-24" d="M314.29,164.26a1.26,1.26,0,0,1-.89-.08c-.38-1.54-1.23-4.44-1.23-4.44"/><path class="cls-25" d="M290.06,230.5c0,.48-.53,1.23.67,1.29s4.78.05,6.27-.51,2.12-1.23,3.84-1.43a37.3,37.3,0,0,0,5.87-.81,1.35,1.35,0,0,0,.94-1.22"/><path class="cls-25" d="M305.2,238.18a2.12,2.12,0,0,0,.09,1.23c0,.23,3.23.41,3.89.31s1.58-.41,1.81-1a21,21,0,0,1,1-2.64,23,23,0,0,1,2-3.31c.89-1,1.41-1.48,1.1-2.9"/><path class="cls-26" d="M307.89,166.43c.25.43.6,1.09.39,1.42"/><ellipse class="cls-17" cx="307.21" cy="144.14" rx="1.27" ry="0.87" transform="translate(150.19 444.97) rotate(-87.57)"/><ellipse class="cls-27" cx="307.21" cy="144.14" rx="0.74" ry="0.51" transform="matrix(0.04, -1, 1, 0.04, 150.19, 444.97)"/></g></g></svg>